<svg xmlns="http://www.w3.org/2000/svg" version="1.1" x="0" y="0" viewBox="0 0 928 130.7" xml:space="preserve"><style type="text/css">
	.st0{fill:#FFFFFF;}
</style><path class="st0" d="M0 71.9C0 70.7 0.8 70 1.8 70c8.1 0 8.7-15.4 22.8-15.4 11.1 0 14.8 16 26.1 16 10 0 16.8-15.7 26.1-15.7 12 0 15.3 14 31.1 14 13.9 0 11.4-14 25.1-14 13.5 0 11.9 13.7 22.9 13.7 12.2 0 17.8-14.8 30.3-14.8 12.5 0 13.1 16.2 23 16.2 1.3 0 2.1 0.4 2.1 1.7 0 1.2-0.9 1.7-2.1 1.7 -11.9 0-12.5-16.2-23-16.2 -11.1 0-16.7 14.8-30.3 14.8 -13 0-11.2-13.7-22.9-13.7 -11.8 0-9.1 14-25.1 14 -16.5 0-21.8-14-31.1-14 -8.7 0-15 15.7-26.1 15.7 -11.9 0-17.9-16-26.1-16 -12 0-12 15.4-22.4 15.4C0.8 73.5 0 72.9 0 71.9M716.9 71.9c0-1.1 0.8-1.8 1.8-1.8 8.1 0 8.7-15.4 22.8-15.4 11.1 0 14.8 16 26.1 16 10 0 16.8-15.7 26.1-15.7 12 0 15.3 14 31.1 14 13.9 0 11.4-14 25.1-14 13.5 0 11.9 13.7 22.9 13.7 12.2 0 17.8-14.8 30.3-14.8 12.5 0 13.1 16.2 23 16.2 1.3 0 2.1 0.4 2.1 1.7 0 1.2-0.9 1.7-2.1 1.7 -11.9 0-12.5-16.2-23-16.2 -11.1 0-16.7 14.8-30.3 14.8 -13 0-11.2-13.7-22.9-13.7 -11.8 0-9.1 14-25.1 14 -16.5 0-21.8-14-31.1-14 -8.7 0-15 15.7-26.1 15.7 -11.9 0-17.9-16-26.1-16 -12 0-12 15.4-22.4 15.4C717.7 73.5 716.9 72.9 716.9 71.9"/><path class="st0" d="M283.9 66.6c0 0.7-0.1 1.1-0.3 1.4l-0.8 1.6c-1.6 2.8-2.7 4.5-4.1 6.2 -1.8 2.7-3.8 4.2-4.6 4.9l-0.4 0.3c-2.8 2.2-3.7 2.6-7.6 3.5 -1.2 0.4-3 0.5-5.1 0.7 -1.9 0.1-6.2-0.4-7.7-0.9l-1.8-0.7c-1.1-0.4-2.3-0.9-3.3-1.9 -0.1-0.3-0.3-0.3-0.8-0.9l-0.3-0.4c-0.8-0.9-0.9-1.9-0.9-2.8 0-0.5 0.4-1.4 1.4-1.4 0.3 0 0.8 0.3 1.2 0.5 0.5 0.5 0.8 0.9 0.9 0.9 0.5 0.8 1.6 2.2 3.5 2.7 0.5 0.3 0.9 0.3 1.4 0.3 1.2 0 2.4-0.1 3.7-0.9 2-0.9 3-2.6 4.1-4.1 1.4-1.8 1.9-4.1 2.6-6.2l0.3-0.7c0.3-1.2 0.7-3 0.7-5 0.3-1.9 0.4-4.2-0.3-6.2 -1.1-2.8-1.1-3-1.2-3 -1.5-4.1-5.4-4.9-7.6-4.9 -1.1-0.1-1.9 0-1.9 0 -5 1.4-8.1 6.4-9.8 10.6 -1.9 4.7-2.8 9.9-2.8 10v1.1c0.1 2.2 0 5.1-0.3 7.2V81c-0.1 3.8-0.3 7.9-0.7 11.5l-0.3 2 -0.9 12.3c-0.1 2.2-0.3 3.1-0.9 6 -0.1 0.1-0.3 0.4-0.3 0.5v0.3h-0.1v0.3c-0.3 0.9-0.4 1.9-0.5 2.6 -1.1 3.1-2.8 6.9-6.8 7.7h-0.1c-0.7 0-0.9-0.1-1.5-0.4 -3.1-1.5-3.4-4.1-3.7-6.5 -0.1-5.3 0.3-8.9 1.1-14l0.1-0.3c0.8-4.9 1.9-7 3.7-11.7 0.3-1.6 1.2-4.3 1.8-6.1l1.5-4.7c0.9-2.4 1.6-4.2 2.3-6.8l0.5-1.4c0.8-1.9 0.8-4.1 2.2-8.1 0.1-2.2 0.1-3.9 0.1-5.1 -1.1 1.5-1.8 3.1-2.7 5.1 -0.8 1.8-1.6 3.4-2.2 4.2 -0.7 1.1-0.9 1.6-2.3 1.2 -0.7-0.3-1.2-0.7-1.2-1.4 0-0.3 0.1-0.5 0.3-0.8 0.3-0.4 0.7-1.4 1.1-1.9 1.5-2.8 2.2-4.2 3.4-7.2l2.2-4.6c0.5-1.5 1.2-3.4 1.5-4.7 0.4-2.7 0-7 0-7.7 0-1.1 0.7-1.8 2-1.8 1.4 0 2.6 0.4 2.7 1.5 0.3 1.6-0.3 10.3-0.3 12.9 0.7-1.4 1.4-2.6 2.4-3.8 0.5-0.5 4.6-4.9 10.6-4.6 1.8 0 3.4 0.5 5 1.1 4.3 1.8 7.3 6 8 11.5 0.3 0.9 0.4 2 0.5 3.1 0.1 1.2 0.1 3-0.3 4.5l-0.4 2.2c0 0 0 0.5-0.1 1.4 -2 7.9-5.8 11.1-7.6 12.3 -0.3 0.3-0.5 0.4-0.8 0.5 2 0 4.1-0.4 6-1.4 3-1.4 4.2-2.2 6.4-4.3 0.9-0.9 2.3-2.4 3.3-3.8 1.2-1.8 2.6-3.7 3.5-5.7 0.7-1.2 1.2-1.9 2.4-1.5C283.5 65.8 283.9 66.5 283.9 66.6zM238 80.8l-0.4 1.2 -0.4 1.1c-1.6 5.4-3.1 10.3-4.5 15 -0.7 3-1.4 6.1-2 9.8 -0.4 1.8-0.4 2.6-0.4 4.3 -0.1 1.1 0 2.2 0 3.3 -0.3 1.9 0.1 3.4 1.1 3.9 0.9-0.3 1.5-0.9 1.9-2.3 0.7-1.5 0.9-3.3 1.5-4.9 0.1-1.1 0.3-2.2 0.5-3.1 0.7-2.6 0.7-3.8 1.1-6.8 0.3-2.6 0.5-5.3 0.7-7.9 0.1-1.8 0.3-3.5 0.5-5.3 0-1.2 0.1-2.6 0.4-3.8l-0.1-1.2 0.1-1.9C238.1 81.8 238.1 81.2 238 80.8zM286.5 62.8l-3.1 5.8c-0.7 1.1-1.1 1.6-1.8 1.6 -0.3 0-0.4 0-0.7-0.1 -0.8-0.3-1.1-0.8-1.1-1.2 0-0.3 0-0.4 0.1-0.9 0.1-0.4 0.8-1.6 0.8-1.6 0.1-0.3 0.3-0.4 0.4-0.5 1.4-2.3 2.6-4.5 3.4-6.4l1.9-4.2 -0.1-0.1 -1.4-0.9c-2.2-1.9-3.4-3.9-4.2-7 -0.3-0.8-0.4-1.8-0.4-2.7 0-1.6 0.4-3.3 1.2-4.5 0.9-1.8 3.1-2.6 4.7-2.6 4.1 0 7 2.4 7.3 7v0.5c0 1.9-0.5 4.1-1.2 5.7 -0.4 0.9-0.5 1.6-0.5 1.9s1.1 0.7 1.9 0.7c1.6 0 2.8 0 4.9-0.8 1.2-0.5 2-1.5 3.5-3.4 0.1-0.1 0.3-0.3 0.4-0.4 0.1-0.3 0.4-0.5 0.9-0.5 0.3 0 0.7 0 1.1 0.3 1.6 0.5 1.8 1.4 1.8 1.5 0 0.4-0.3 1.5-0.5 1.9 -0.3 0.4-0.4 0.9-0.7 1.6 -0.5 0.8-0.9 2.2-1.6 3.8l-0.9 2.2c-1.1 2.7-0.9 2.8-1.5 5.4 -0.5 2.6-0.8 5.3-1.1 8 0 4.3 0.5 8.1 4.6 8.1 1.1 0 1.6-0.3 3.3-1.1 0.9-0.5 1.5-1.4 3.5-3.4 0.9-1.2 1.8-2.6 2.6-3.8 1.5-2.2 2.4-3.7 3.4-5.6 0.7-1.1 1.1-1.6 1.8-1.6 0.3 0 0.4 0 0.7 0.1 0.8 0.3 1.1 0.8 1.1 1.2 0 0.3 0 0.4-0.1 0.9 -0.1 0.4-0.8 1.6-0.8 1.6 -0.1 0.3-0.3 0.5-0.4 0.7 -1.2 2.2-2 3.5-3.5 5.3 -1.8 2.4-2.6 4.1-3.4 4.9l-0.9 1.1c-1.9 2.2-2.6 2.6-3.8 3.1 -1.4 0.7-3.1 0.8-3.8 0.8 -0.7 0-1.1 0-1.4-0.1h-0.3c-0.7-0.1-1.5-0.4-2.2-0.9 -1.6-1.1-2.4-2.4-3.1-4.3 -0.5-1.8-1.1-4.3-1.1-6.6v-1.2l0.3-2.8c0.1-2.7 0.7-5.1 1.4-7.2l0.8-2.3c0.4-0.9 0.8-2.2 1.1-3.1 -0.5 0-1.1 0.3-1.5 0.4l-0.5 0.3c-0.7 0.1-1.2 0.3-1.8 0.3 -0.7 0-1.4-0.1-1.8-0.1 -0.9 0-1.9-0.1-2.8-0.4l-1.2-0.4C288.6 58.9 286.9 62 286.5 62.8zM287.4 41c-0.3-0.1-0.4-0.1-0.7-0.1 -1.5 0-2.3 1.9-2.4 3.3v0.3c0 1.8 0.8 4.6 1.8 5.6 0.4 0.3 1.1 1.1 2.3 1.6 0.7-1.4 1.4-3 1.4-3.1 0.1-0.9 0.3-2.2 0.3-2.7C290 43.8 289.3 41.4 287.4 41zM331.9 85.4c-0.9 0-1.9 0-3-0.1 -2.4-0.3-5.8-1.6-8-3.7 -3.3-3.9-4.1-8.9-4.1-12.6 0-1.1 0-1.9 0.1-2.7 0.3-0.8 0.4-1.6 0.5-2.4 0.1-0.4 0.1-0.9 0.4-1.5 0.1-0.4 0.1-0.9 0.4-1.5 0-0.3 0.3-0.7 0.4-0.9 2.7-7.7 8.3-12.5 9.3-13.3 0.8-0.7 1.6-1.1 2.6-1.5 1.2-0.7 2.4-0.7 2.7-0.7 0.3 0 0.7-0.1 2.3-0.1 2.7 0 3.8 0.7 5.3 2 0.9 1.1 1.5 2.7 1.5 4.3 0 1.1-0.3 2.6-0.7 3.7 -1.5 3.7-3.4 6.6-7.7 10.3 -2 1.8-3.3 2.7-5.6 3.8l-0.8 0.4c-1.1 0.5-2 0.4-3.4 1.1 -0.3 0.1-0.8 0.4-1.1 0.7 -0.4 0.1-0.9 0.3-1.4 0.5l-0.3 0.1c-0.1 0.3-0.3 0.4-0.3 0.7 0 4.1 2 6.9 3.8 8 0.5 0.3 0.9 0.8 1.4 0.8 0.9 0.4 2.7 0.7 3.5 0.7 0.7 0.1 1.4 0.1 2 0.1 1.6 0 3.3-0.3 4.6-0.8 2.7-1.1 5.1-2.7 7.2-5 0.9-0.9 2-2.7 3-3.9 1.4-1.8 2.2-3 3.1-5.3 0.4-0.8 0.7-1.2 1.4-1.2 0.3 0 0.4 0 0.8 0.1 0.8 0.3 1.1 0.7 1.1 1.4 0 0.3 0 0.5-0.1 0.9l-0.8 1.6c-1.5 2.8-2.4 4.1-4.1 6 -1.6 2.7-3.1 4.1-3.9 4.7l-0.7 0.7c-2.2 2.2-4.2 3-7.2 4.1C335.5 85.3 333.8 85.4 331.9 85.4zM322 67.3c0.8-0.4 2.3-0.7 2.8-1.1 4.1-2.2 5.4-2.4 7.9-5 0.9-1.1 2-2.2 2.7-3.3 1.8-2 2.6-4.9 2.6-7.6 0-1.1-0.8-2.4-1.9-2.4 -0.9 0-1.4 0.1-1.8 0.3 -0.4 0.3-0.5 0.3-0.5 0.3s-3.3 0.7-6.8 5.4c-0.7 0.5-0.9 0.9-1.2 1.5 -0.8 1.1-1.5 2.4-2.2 3.7 -0.9 2.3-0.9 2.7-0.9 2.8 0 0.3-0.4 0.8-0.5 1.5 0 0.3-0.1 0.7-0.1 1.1 -0.3 1.4-0.5 1.4-0.5 2.3v0.8L322 67.3zM350.7 70.3c-0.7 0-1.4-0.4-1.4-1.5 0-0.1 0-0.4 0-0.5l2.3-4.5 1.2-2 1.2-2 1.1-1.6 0.8-1.2 0.8-1.2c-1.5-2.8-2.4-5.8-2.4-9.2 0-1.5 0.3-2.8 0.7-3.9l0.4-1.1 0.7-0.8c0.4-0.5 0.9-0.9 1.5-1.2 0.9-0.5 2.2-0.8 3.3-0.8 0.4 0 0.8 0.1 1.2 0.3l0.9 0.3c0.7 0.3 1.4 0.7 1.9 1.4 0.4 0.4 0.7 0.9 0.9 1.5 0.3 0.7 0.4 1.4 0.4 2.2 0 0.4-0.1 0.8-0.1 1.2l-0.3 1.5c-0.1 0.7-0.5 1.4-0.8 2 -0.1 0.4-0.3 0.8-0.5 1.2l-1.4 2.2 -0.7 1.1c-0.4 0.7-0.9 1.4-1.5 2l0.8 1.4 0.8 1.4c0.1 0.3 0.3 0.7 0.5 0.9l0.9 1.5c0.4 0.5 0.5 1.1 0.9 1.6l0.5 0.8 0.8 1.5 0.8 1.2 0.8 1.9 0.4 0.9c0.7 1.6 1.1 3.3 1.2 5v1.4c0 0.8-0.1 1.8-0.3 2.4 -0.1 0.8-0.4 1.6-0.8 2.3l-0.8 1.4c1.4-0.5 2.6-1.2 3.5-1.9 0.8-0.5 1.5-1.2 2.2-1.8 1.8-1.6 3.3-3.5 4.1-4.7l0.9-1.4c0.9-1.5 1.8-2.7 2.4-4.1 0-0.1 0.1-0.1 0.1-0.3 0.7-1.1 0.8-1.5 1.5-1.5 0.3 0 0.5 0 0.8 0.1 0.8 0.3 1.1 0.8 1.1 1.2 0 0.3 0 0.7-0.3 1.2l-1.2 2.3 -1.2 2 -2.2 3.1c-1.2 1.8-2.4 3.1-3.8 4.3 -0.7 0.7-1.5 1.2-2.2 1.8 -0.8 0.7-1.8 1.2-2.7 1.6 -0.9 0.5-2 0.8-3.1 1.2l-3 0.8 -2.3 0.4c-1.1 0.1-2.4 0.3-3.7 0.3h-0.5c-1.4 0-2.7-0.3-3.9-0.7l-1.6-0.8c-0.3-0.1-0.5-0.3-0.8-0.5 -0.7-0.5-1.2-1.1-1.5-1.6 -0.1-0.1-0.1-0.4-0.1-0.5 0-0.4 0.1-0.8 0.3-0.9l0.5-0.4c0.3-0.3 0.7-0.5 1.1-0.5h0.1c0.4 0.4 0.8 0.9 1.2 1.2 0.4 0.3 0.8 0.5 1.2 0.7 1.1 0.4 2.3 0.5 3.5 0.5 0.8 0 1.6-0.1 2.3-0.3 0.8-0.3 1.9-0.7 2.4-1.4 0.4-0.5 0.9-1.1 1.4-1.9 0.3-0.4 0.4-0.8 0.5-1.4 0.1-0.7 0.3-1.5 0.3-2.3 0-0.7 0-1.4-0.1-2 -0.1-0.8-0.5-1.9-0.8-2.7 -0.3-0.8-0.3-1.8-0.7-2.6 -0.3-0.7-0.8-1.2-1.2-1.9l-0.5-1.1 -0.7-1.2 -0.9-1.6 -0.7-1.1L359 60l-0.5-0.9 -0.4 0.5 -1.4 2 -1.2 2c-0.3 0.5-0.5 1.2-0.9 1.8l-1.2 2.2c-0.5 0.9-1.1 1.5-1.6 2.4C351.4 70.3 351 70.3 350.7 70.3zM358.7 49.7c0.1 0.7 0.4 1.5 0.7 2.2 0.4-0.5 0.8-1.1 1.1-1.6 0.3-0.3 0.3-0.5 0.4-0.8l0.7-1.4c0.4-0.9 0.8-2 0.8-3.3 0-1.1-0.4-1.8-0.9-2 -0.1-0.1-0.4-0.1-0.7-0.1 -0.4 0-0.8 0.1-1.2 0.5 -0.7 0.5-1.1 1.8-1.1 3.3C358.4 47.5 358.4 48.6 358.7 49.7zM395.4 85.4c-0.9 0-1.9 0-3-0.1 -2.4-0.3-5.8-1.6-8-3.7 -3.3-3.9-4.1-8.9-4.1-12.6 0-1.1 0-1.9 0.1-2.7 0.3-0.8 0.4-1.6 0.5-2.4 0.1-0.4 0.1-0.9 0.4-1.5 0.1-0.4 0.1-0.9 0.4-1.5 0-0.3 0.3-0.7 0.4-0.9 2.7-7.7 8.3-12.5 9.3-13.3 0.8-0.7 1.6-1.1 2.6-1.5 1.2-0.7 2.4-0.7 2.7-0.7 0.3 0 0.7-0.1 2.3-0.1 2.7 0 3.8 0.7 5.3 2 0.9 1.1 1.5 2.7 1.5 4.3 0 1.1-0.3 2.6-0.7 3.7 -1.5 3.7-3.4 6.6-7.7 10.3 -2 1.8-3.3 2.7-5.6 3.8l-0.8 0.4c-1.1 0.5-2 0.4-3.4 1.1 -0.3 0.1-0.8 0.4-1.1 0.7 -0.4 0.1-0.9 0.3-1.4 0.5l-0.3 0.1c-0.1 0.3-0.3 0.4-0.3 0.7 0 4.1 2 6.9 3.8 8 0.5 0.3 0.9 0.8 1.4 0.8 0.9 0.4 2.7 0.7 3.5 0.7 0.7 0.1 1.4 0.1 2 0.1 1.6 0 3.3-0.3 4.6-0.8 2.7-1.1 5.1-2.7 7.2-5 0.9-0.9 2-2.7 3-3.9 1.4-1.8 2.2-3 3.1-5.3 0.4-0.8 0.7-1.2 1.4-1.2 0.3 0 0.4 0 0.8 0.1 0.8 0.3 1.1 0.7 1.1 1.4 0 0.3 0 0.5-0.1 0.9l-0.8 1.6c-1.5 2.8-2.4 4.1-4.1 6 -1.6 2.7-3.1 4.1-3.9 4.7l-0.7 0.7c-2.2 2.2-4.2 3-7.2 4.1C399.1 85.3 397.3 85.4 395.4 85.4zM385.5 67.3c0.8-0.4 2.3-0.7 2.8-1.1 4.1-2.2 5.4-2.4 7.9-5 0.9-1.1 2-2.2 2.7-3.3 1.8-2 2.6-4.9 2.6-7.6 0-1.1-0.8-2.4-1.9-2.4 -0.9 0-1.4 0.1-1.8 0.3 -0.4 0.3-0.5 0.3-0.5 0.3s-3.3 0.7-6.8 5.4c-0.7 0.5-0.9 0.9-1.2 1.5 -0.8 1.1-1.5 2.4-2.2 3.7 -0.9 2.3-0.9 2.7-0.9 2.8 0 0.3-0.4 0.8-0.5 1.5 0 0.3-0.1 0.7-0.1 1.1 -0.3 1.4-0.5 1.4-0.5 2.3v0.8L385.5 67.3zM453.8 46.5c3.4 2 3.9 4.9 4.2 9.1 0.1 0.9-0.3 2.8-0.7 5.6 -0.4 2.3-0.8 3.7-1.2 5.6l-0.4 1.8 -1.2 4.9 -0.3 1.6c-0.3 2.4 0 5.3 3.4 5.3h0.8c1.5-0.1 2.2-0.5 3.7-1.2 0.9-0.5 1.5-1.2 3.5-3.3 0.9-1.2 2.3-2.8 3.1-4.1 1.5-2.2 1.9-3 2.8-4.7 0.8-1.5 1.4-1.9 2.4-1.5 0.8 0.3 1.1 0.8 1.1 1.2 0 0.3 0 0.4-0.1 0.9 -0.1 0.4-0.8 1.6-0.8 1.6 -1.5 2.6-1.8 3.3-3.4 5.1 -1.8 2.4-2.6 3.8-3.4 4.6l-1.4 1.4c-2 2.2-3.3 2.6-4.5 3.1 -1.5 0.7-3.7 1.1-4.3 1.1 -0.5 0-1.2 0-1.8-0.3 -1.4-0.4-3.3-1.2-3.8-2.3 -0.8-1.6-1.4-2.8-1.4-4.6 0-2.6 0.7-4.6 1.2-7.2l0.4-1.9c0.3-1.4 0.8-3.3 0.9-4.6l0.4-2.6c0.3-1.4 0.4-3.4 0.3-4.7 0-0.9-0.1-2.2-0.4-3.3 -0.3-0.9-0.7-1.5-1.1-2 -0.5-0.7-1.8-0.9-2.8-0.9 -1.8 0-3.9 0.7-6.6 3.5 -0.7 0.5-1.1 0.9-1.5 1.5 -0.3 0.4-0.7 0.8-0.9 1.2 0 0 0 0-1.6 2.4 -1.9 2.4-3.7 6.2-5 12.7 -0.3 1.2-0.5 2.2-0.5 3 -0.1 0.7-0.3 1.2-0.4 1.8 0 0.5-0.1 0.7-0.1 1.1 -0.3 1.6-0.4 3.3-0.5 5 -0.3 2.3-0.8 2.6-2.2 2.6h-0.5c-0.5 0-0.9 0-1.6-0.5 -0.3-0.3-0.3-1.2-0.3-1.5 0-0.7 0.1-2.7 0.3-3.5l0.8-4.1 1.8-8c0.1-0.8 0.3-1.1 0.4-1.9 0-0.7 0.1-1.4 0.1-2.2 0.1-0.5 0.3-1.2 0.4-1.9 0.3-0.9 0.4-2 0.5-3.1 0-1.2 0.3-4.6 0.3-5.8 0-1.5-0.8-2.2-2-2.2 -1.6 0-2.4 0.7-3.7 1.6 -0.8 0.7-1.8 1.6-3 3.5 -0.9 1.2-2.6 4.6-3.3 5.8 -1.5 2.6-2 3.8-2.8 5.7 -0.8 1.5-1.4 1.9-2.4 1.5 -0.8-0.3-1.1-0.8-1.1-1.2 0-0.3 0-0.4 0.1-0.9 0.1-0.4 0.7-1.6 0.7-1.6 1.5-2.6 2-3.9 3.3-6.1 1.2-2.3 3.1-6.1 5.6-8.7 1.6-1.8 2.2-2.2 3-2.7 0.3-0.1 1.1-0.7 1.4-0.7 1.1-0.3 1.9-0.3 2.6-0.3 1.6 0 2.7 0.4 4.2 1.9 1.2 1.1 1.6 2.6 1.6 4.3 0 0.7-0.3 2.4-0.3 2.8 0 0.1 0 0.1 0 0.1 0.7-0.9 1.4-1.9 2.2-2.7 0.3-0.3 0.4-0.4 0.7-0.7 2.2-2.6 4.5-4.5 7.6-5.6 1.9-0.7 3.5-0.8 4.3-0.8C451.6 45.7 452.6 45.9 453.8 46.5zM477.5 50.2c-0.7 0-1.1-0.1-1.6-0.1 -1.1 0-1.8 0.1-2.8 0.1 -0.5-0.1-1.1-0.3-1.5-0.5 -0.3-0.3-0.5-0.7-0.4-1.2 0.1-0.9 0.5-1.2 1.2-1.6 0.4-0.3 0.9 0 1.2 0 0.3 0 0.7-0.1 1.1-0.1h2.3c1.1 0.1 2 0.3 3 0.1 0.5-2.8 1.2-5.7 1.9-8.7l0.1-0.3c0.4-1.6 0.8-3.3 1.2-4.9 0.1-0.7 0.4-1.2 0.5-1.9 0.3-0.8 0.5-1.8 0.8-2.6 0.7-1.4 1.2-2.8 2.2-4.2 0.5-0.7 1.1-1.4 1.8-1.9 0.8-0.7 1.9-0.9 2.8-0.9 1.2 0 2.2 0.5 2.4 0.9 0.3 0.1 0.5 0.4 0.7 0.7 0.3 0.3 0.7 1.4 0.7 2.3 0 2-0.3 3.9-0.8 6.1 -0.1 0.7-0.3 1.2-0.5 1.9 -0.7 2-1.6 4.2-2.7 6.4 -1.5 3.4-2.2 4.2-2.6 4.9l-0.8 1.4h0.7c0.9 0 2.6 0 4.1 0.1 2 0.1 2.8 0.1 3.7 0.3 0.7 0 1.2 0 1.5 0.1 0.3 0.1 0.7 0 0.9 0.5 0.5 1.1 0.1 1.5 0 2.3 -0.1 0.4-0.8 0.8-1.5 0.8h-0.3c-2.6-0.4-5.7-0.7-8.7-0.7 -0.8 0.1-2.2-0.1-2.8-0.1 -0.4 0-0.5 0.8-0.9 1.5l-0.4 0.7c-0.5 0.8-0.5 1.1-0.8 2 0 0.3-0.3 1.4-0.5 2.6 -0.1 0.7-0.3 1.4-0.4 2.2 -0.1 0.7-0.3 1.5-0.4 2.3 -0.3 1.6-0.5 3.4-0.8 5 -0.4 2.2-0.7 4.1-0.7 5.8 0 0.8 0 2 0.3 3.4 0.1 0.4 0.1 0.8 0.3 1.2 0.3 0.8 0.5 1.6 1.1 2.4 0.8 1.2 2.4 1.4 3.7 1.4 0.8 0 2.8-0.1 4.5-1.2 0.8-0.5 0.9-0.3 3-2.3 0.9-1.2 2.2-2.6 3-3.8 1.5-2.2 2.4-3.7 3.4-5.4 0.9-1.6 1.2-2 2.4-1.6 0.8 0.3 1.1 0.8 1.1 1.2 0 0.3 0 0.7-0.3 1.2l-1.2 2.3c-0.9 1.6-1.8 3.1-3.4 5.1 -1.8 2.3-2.6 3.7-3.4 4.5 -0.5 0.5-0.9 1.1-2 1.8 -2 1.6-3.1 1.6-4.6 2.3 -1.5 0.4-2.7 0.5-3.5 0.4 -2.8-0.5-5.1-1.2-6.6-4.1 -0.8-1.1-1.2-2.8-1.5-4.1 -0.4-2.7-0.1-4.5 0-5.7 -0.3-1.4 0.7-6.1 1.1-6.9 0.1-0.3-0.1-0.5-0.3-0.3 -0.3 0.4-0.5 1.1-0.5 1.1 -0.8 1.6-1.6 3.5-2.2 4.3 -0.7 1.1-0.9 1.4-2.3 0.9 -0.7-0.3-1.1-0.7-1.1-1.4 0-0.3 0.1-0.5 0.3-0.8 0.3-0.4 0.7-1.4 1.1-1.9l0.8-1.5 1.1-2.2 1.5-3c0.4-1.4 0.8-2.2 1.4-3.4 0.3-0.7 0.7-1.5 1.1-2.4 0.3-0.9 0.7-1.6 0.9-2.7 0-0.1 0.1-0.3 0.1-0.4C478.7 50.1 477.9 50.2 477.5 50.2zM485 41.1l-0.3 1.2 -1.1 4.3c0.7-0.9 1.4-2.2 2.2-3.5 0.5-0.9 0.9-1.8 1.5-2.7 0.8-1.8 1.8-3.9 2.6-6.1 0.1-0.5 0.4-0.9 0.5-1.5 0.4-1.2 0.8-2.4 0.9-3.5 0.3-1.1 0.4-2.8-0.1-3.4 -0.1-0.3-0.4-0.3-0.7-0.3 -0.5 0.1-0.8 0.5-1.1 0.8v0.1c-0.5 0.9-0.9 1.9-1.2 2.8l-0.3 0.7 -1.2 4.7 -0.4 1.6 -0.3 0.9L485 41.1zM513.8 85.4c-0.9 0-1.9 0-3-0.1 -2.4-0.3-5.8-1.6-8-3.7 -3.3-3.9-4.1-8.9-4.1-12.6 0-1.1 0-1.9 0.1-2.7 0.3-0.8 0.4-1.6 0.5-2.4 0.1-0.4 0.1-0.9 0.4-1.5 0.1-0.4 0.1-0.9 0.4-1.5 0-0.3 0.3-0.7 0.4-0.9 2.7-7.7 8.3-12.5 9.3-13.3 0.8-0.7 1.6-1.1 2.6-1.5 1.2-0.7 2.4-0.7 2.7-0.7 0.3 0 0.7-0.1 2.3-0.1 2.7 0 3.8 0.7 5.3 2 0.9 1.1 1.5 2.7 1.5 4.3 0 1.1-0.3 2.6-0.7 3.7 -1.5 3.7-3.4 6.6-7.7 10.3 -2 1.8-3.3 2.7-5.6 3.8l-0.8 0.4c-1.1 0.5-2 0.4-3.4 1.1 -0.3 0.1-0.8 0.4-1.1 0.7 -0.4 0.1-0.9 0.3-1.4 0.5l-0.3 0.1c-0.1 0.3-0.3 0.4-0.3 0.7 0 4.1 2 6.9 3.8 8 0.5 0.3 0.9 0.8 1.4 0.8 0.9 0.4 2.7 0.7 3.5 0.7 0.7 0.1 1.4 0.1 2 0.1 1.6 0 3.3-0.3 4.6-0.8 2.7-1.1 5.1-2.7 7.2-5 0.9-0.9 2-2.7 3-3.9 1.4-1.8 2.2-3 3.1-5.3 0.4-0.8 0.7-1.2 1.4-1.2 0.3 0 0.4 0 0.8 0.1 0.8 0.3 1.1 0.7 1.1 1.4 0 0.3 0 0.5-0.1 0.9l-0.8 1.6c-1.5 2.8-2.4 4.1-4.1 6 -1.6 2.7-3.1 4.1-3.9 4.7l-0.7 0.7c-2.2 2.2-4.2 3-7.2 4.1C517.5 85.3 515.7 85.4 513.8 85.4zM503.9 67.3c0.8-0.4 2.3-0.7 2.8-1.1 4.1-2.2 5.4-2.4 7.9-5 0.9-1.1 2-2.2 2.7-3.3 1.8-2 2.6-4.9 2.6-7.6 0-1.1-0.8-2.4-1.9-2.4 -0.9 0-1.4 0.1-1.8 0.3 -0.4 0.3-0.5 0.3-0.5 0.3s-3.3 0.7-6.8 5.4c-0.7 0.5-0.9 0.9-1.2 1.5 -0.8 1.1-1.5 2.4-2.2 3.7 -0.9 2.3-0.9 2.7-0.9 2.8 0 0.3-0.4 0.8-0.5 1.5 0 0.3-0.1 0.7-0.1 1.1 -0.3 1.4-0.5 1.4-0.5 2.3v0.8L503.9 67.3zM571.3 79.3c0.8-0.5 1.4-0.9 3.4-3 0.9-1.2 2.2-2.6 3-3.8 1.5-2.2 2.4-3.7 3.4-5.4 0.7-1.2 1.1-1.8 1.8-1.8 0.3 0 0.4 0 0.7 0.1 0.8 0.3 1.1 0.8 1.1 1.2 0 0.3 0 0.7-0.3 1.2l-1.2 2.3c-0.9 1.6-1.8 3.1-3.4 5.1 -1.8 2.3-2.6 3.7-3.4 4.5l-1.4 1.4c-2 2-3.1 2.7-4.6 3.4 -0.9 0.3-1.8 0.4-2.4 0.4 -0.4 0-0.9-0.1-1.2-0.1 -2.8-0.5-3.7-1.1-5.4-3.9 -0.5-1.1-1.2-3-1.5-4.2l-0.3-2.3c0-0.1 0-0.4-0.1-0.7 -0.3 0-0.4 0.4-0.5 0.7C556.1 80 552.2 85 545.1 85c-2.8 0-4.5-0.4-6.8-1.5 -3.4-1.8-6.1-5.1-6.6-8.3 -0.3-1.5-0.4-3-0.4-4.5 0-0.9 0-1.9 0.3-3 0.1-2.8 0.7-5.3 1.8-7.7 1.6-3.3 3.4-6.1 5.7-8.5 0.9-1.2 2.8-2.6 4.5-3.7 0.1-0.1 0.3-0.1 0.4-0.3 2.8-1.8 6.2-2.7 9.8-3.3h1.4c0.4 0.1 3.1-0.1 5.8 1.6 0.3-2.7 0.7-5.6 1.1-8.3l0.4-2 1.4-10.2c0.3-2.2 0.7-5.1 1.1-6.2 0.4-1.8 0.7-3.5 1.5-5.3 1.4-3.1 3.3-7 7-7 0.7 0 1.4 0.1 1.9 0.4 3.1 1.5 3.4 3.9 3.5 6.4 -0.1 5.3-0.8 8.9-1.9 14l-0.1 0.3c-1.1 4.7-2.7 9.3-4.2 12.6 -0.9 2.8-1.4 4.3-2 6.1 -0.7 1.4-1.2 3-1.9 4.6 -1.1 2.3-2 4.7-2.8 7.3l-0.5 1.4c-0.9 1.8-2 5.1-2 7.5v0.4c0.1 3.9-0.5 12.7 4.7 12.7C568.7 80.6 569.6 80.4 571.3 79.3zM559.8 60.1V59c0-1.6 0.1-3.9 0.4-5.8 -0.8-0.1-1.2-0.5-1.5-2.2 -0.5-2-2.2-2.6-4.2-2.6 -2.3 0-6.8 0.7-9.8 3.7 -1.2 1.2-2.6 1.8-3.8 3.4 -0.9 1.2-1.1 1.5-1.1 1.6l-0.7 0.8c-1.4 2.2-2 4.7-3 7.2 -0.5 1.6-0.7 3.8-0.7 6.5 0 0.9 0.1 3 0.8 4.2 0.3 0.8 0.8 2 1.4 2.7 2 1.9 3.4 2.7 6.8 2.7 0.5 0 2.2 0 3.1-0.3 3.9-1.2 7.2-4.7 10.3-14.1C558.9 63.3 559.8 60.2 559.8 60.1zM564.5 48.4c0 0.4 0 0.7 0.1 1.1 0.4-0.7 0.4-1.5 0.9-2.2 2-5.4 3.8-10.2 5.3-14.8 0.9-3 1.8-6.1 2.6-8.9 0.7-2.8 1.1-5.3 1.1-8.5 0-1.9-0.3-3.1-1.1-3.3H573c-0.8 0-1.4 0.5-1.8 1.8 -0.7 1.4-1.1 3.1-1.6 4.7 -0.8 3-1.5 6.1-2.2 9.8 -0.4 2.6-0.8 5.3-1.1 7.9 -0.3 1.8-0.4 3.5-0.8 5.3 0 1.2-0.3 2.6-0.5 3.7C564.9 45.9 564.5 47.2 564.5 48.4zM642 71.3c-0.7-0.5-1.1-0.8-1.5-1.5 -0.3 1.9-0.5 3.3-1.1 4.5 -0.5 1.9-1.5 3.3-2.4 4.9 -1.8 2.7-6.2 5.8-10.6 5.8h-0.3 -0.4c-3.7-0.1-6.5-1.8-8-3.9 -2.3-3.5-3-5.6-3.4-9.1 -0.3-2.7-0.4-5.3-0.4-7.9 0-1.5 0.1-3 0.1-4.5v-0.4 -0.1c0-0.4 0.4-2 0.3-1.9 0-0.4 0.1-2.2 0.1-3.1 0.1-0.8 0.4-1.5 0.4-1.9l0.5-3.7c0-0.8 0.1-1.5 0.1-2.3l0.4-2.8c0.1-0.4 0.3-0.9 0.3-1.5 -0.9 0-1.9 0-3-0.3l-0.8-0.3c-1.6-0.4-1.9-0.8-3.4-1.8 -0.9-0.5-2.2-2.4-2.8-3.1 -0.4-0.4-1.2-2.8-1.4-3.3l-0.7-1.9c-0.4-1.1-0.7-2.4-0.7-4.3 0-0.5 0.1-3.1 1.1-3.8 0.3-0.3 0.5-0.4 0.8-0.4 0.1 0 0.4 0.1 0.7 0.1 0.4 0 0.5 0.3 0.7 0.3 0.4 0.3 0.4 0.7 0.4 1.1v0.8l-0.3 1.6c0 1.2 0 1.6 0.1 2.6v0.4c0 0.8 0.4 1.8 0.8 2.4 0.4 0.8 0.9 1.9 2.6 3.5 1.9 1.8 3.5 2.3 6 2.3l0.5 0.1 0.4-0.9c0.3-2 0.9-3.8 1.5-5.7l0.4-1.4c0.8-3.3 2-6.6 3.5-10.3 1.2-3.3 2.6-6.8 4.7-10.3 1.2-2.3 2.6-3.5 4.2-4.6 1.2-0.9 2.3-1.4 3.4-1.4 0.8 0 1.8 0.3 2.6 0.8 1.6 0.7 2.2 1.8 2.6 2.6 0.4 1.2 0.5 2.4 0.5 3.5 0 1.4-0.1 2.7-0.5 4.1 -0.4 1.8-0.9 3.8-1.6 5.7 -0.3 0.9-0.7 1.9-1.2 2.8 -0.5 1.2-1.1 2.3-1.9 3.5l-2 3.5 -2 2.7c-0.5 0.8-1.4 1.6-2 2.3 -1.4 1.5-2.8 2.8-4.5 3.9l-2.3 1.4 -1.5 0.7c-0.3 0.1-0.4 0.1-0.7 0.1l-0.1 1.5c0 0.1-0.7 3.1-0.8 3.4 -0.3 1.2-0.4 2.4-0.5 3.5 0 0.1 0 1.4 0 1.6 0 2.2-0.3 3-0.3 3.5 -0.4 3.9-0.5 7.5-0.5 10.8 0 0 0 0.1 0 0.3 0 0.1 0 0.3 0 0.5 0 2.3 0.1 8.5 2.3 11.8 0.4 0.7 1.2 1.4 1.9 1.8 0.7 0.5 0.9 0.5 1.4 0.7 0.3 0.1 0.9 0.1 1.6 0.1 3.9-0.1 7.6-2 9.2-5.3 1.8-3.8 2.7-8 2.7-12.9v-1.4c0-1.9-0.3-3.5-0.5-5.1 -0.4-1.4-0.7-2.6-1.4-3.5L635 52c-0.1-0.3-0.3-0.7-0.3-0.9 0-0.4 0.3-0.7 0.5-0.8 0.4-0.3 0.7-0.7 1.5-0.7h0.3c0.3 0 0.8 0 1.1 0.1l0.4 0.3c0.8 0.5 1.1 1.1 1.6 2.2 0.7 1.4 0.8 2.4 0.9 4.3v1.6c0.1 2 0.4 4.3 0.5 5.1l0.4 2.2c0.3 0.9 0.5 1.4 1.1 2.2 0.4 0.7 1.4 1.4 1.9 1.6 0.9 0.5 1.9 0.7 3 0.7 1.9 0 3.5-0.7 4.6-2.2l0.9-1.6c0.4-0.5 0.5-0.7 1.1-0.7 0.1 0 0.4 0 0.7 0.1 0.9 0.4 1.1 0.9 1.1 1.5 0 0.7-0.8 2.3-2 3.7 -0.8 0.8-1.5 1.5-2.6 1.9 -1.5 0.5-1.5 0.4-2.3 0.5 -0.5 0.1-1.5 0.1-2.3 0.1 -0.9 0-2.2-0.3-2.8-0.5l-0.5-0.3L642 71.3zM621.4 36.9c0.5-0.3 1.1-0.5 1.6-0.9l2-1.5c0.7-0.5 1.5-1.1 2-1.8l1.8-2c0.9-0.9 1.5-2 2.2-3.1l1.8-2.8c0.8-1.6 1.6-3.1 2.2-4.7 0.3-0.7 0.5-1.4 0.7-2l0.5-1.8c0.5-1.5 0.7-2.8 0.7-4.2v-1.2c0-1.1-0.1-1.8-0.5-2.7 -0.1-0.4-0.8-0.7-0.9-0.7s-0.1 0.1-0.4 0.1c-1.5 0.7-2.6 1.5-3.5 3.3 -2.2 3.4-4.1 7-5.3 11l-0.5 1.4 -0.4 1.8 -2.2 6.8c-0.5 1.4-0.9 2.6-1.2 3.7C621.7 35.8 621.4 36.4 621.4 36.9zM660.4 73.6c0.1 1.2 0.9 3.4 1.9 4.3 2 2.2 4.9 2.7 7.6 1.9 2.7-0.5 5.1-2.2 7.2-5.8l0.4-0.5 0.1-0.4c2.4-4.7 4.5-17.6 4.5-17.8l0.8-4.3c0-0.8 0.3-1.8 0.4-2.6 0.3-1.1 1.1-1.6 1.9-1.6 0.4 0 0.8 0.1 1.2 0.4 1.4 0.7 1.6 0.8 1.6 1.8 0 2.3-0.7 4.3-1.1 6 -0.3 0.7-0.4 2-0.5 2.8 -0.1 0.5-0.3 0.7-0.5 1.9 -0.3 1.2-0.5 2.3-0.7 3.5 -2.2 11.4-2 14-2.3 15.4v0.3l-0.8 5.7c1.2-0.7 4.6-3.5 5.3-4.2l3-2.8c0.8-0.5 1.6-2 2.4-2.7l2.2-2.6c1.8-2.2 2.4-3.4 3.4-5.1 0.9-1.6 1.2-2 2.4-1.6 0.8 0.3 1.1 0.8 1.1 1.2 0 0.3 0 0.7-0.3 1.2l-1.2 2.3c-0.9 1.6-1.8 2.8-3.4 4.9 -1.8 2.3-2.2 2.8-3 3.7l-1.6 1.6 -1.6 1.5c-1.8 1.6-2.8 2.8-5.4 4.7l-2.2 1.5c-0.4 0.3-0.9 0.7-1.2 1.2 -0.3 0.5-0.3 1.2-0.5 2.4l-0.1 0.8 -0.4 2.8c-0.7 3.1-0.5 2.3-0.9 5.4l-0.4 3c-0.1 1.2-0.5 2.4-0.8 3.5 -0.1 0.4-0.3 0.8-0.3 1.2L678 110l-0.4 1.8c0 0-0.1 0.4-0.4 1.1 -1.5 4.6-5.4 12.1-11.9 12.1 -0.7 0-1.2 0-2.2-0.1 -0.8-0.3-1.5-0.4-2.2-0.8 -0.5-0.3-0.9-0.5-1.5-1.1 -1.6-1.2-3.5-3.9-3.4-8.7 0.8-8.4 3.4-11 6.2-14.2 1.1-1.4 4.1-4.1 5.4-5l2-1.5c1.4-0.9 2.3-1.9 5.1-3.8l1.2-0.8c1.5-1.1 1.6-1.6 1.8-3.3 0-1.6 0.7-4.7 0.9-6.6v-0.1l-1.5 1.5c-0.8 0.9-1.6 1.9-2.8 2.6 -3 1.8-5.4 2.3-8.5 1.8 -3.5-0.5-5.4-1.6-7.3-4.6 -0.8-1.5-1.9-4.2-2-5.7 -0.3-1.9-0.7-4.6-0.7-6.5 -0.8 2.2-1.4 2.3-2.6 1.9 -0.7-0.3-1.1-0.7-1.1-1.4 0-0.3 0.1-0.5 0.3-0.8 0.3-0.4 0.7-1.4 1.1-1.9 0.5-1.1 1.4-1.9 1.8-2.7l0.3-3.8c0.1-1.5 0.1-3 0.4-3.9 0.3-2 0.4-3.8 0.9-5.7 0.3-0.9 0.7-2 1.2-3 0.5-1.2 1.5-2.3 3-3 1.1-0.4 1.6-0.5 2.2-0.5 1.2 0 2.2 0.4 2.7 1.1 0.7 0.8 1.1 1.8 1.1 3.7 0 2.3-1.1 4.6-2.8 7.6 -0.5 1.2-1.5 2.6-2.3 3.7 -0.8 1.1-1.6 2.3-2.3 3.5 0 1.2 0 2.2 0 3 0 0 0.1 1.9 0.1 3.5C659.9 69 660.1 72 660.4 73.6zM676.7 92.9c-0.1 0.1-5.7 3.3-8.3 6.2 -2.8 2.6-3.9 3.5-4.9 5l-0.8 1.4c-0.3 0.4-3 4.7-2.8 8.7 0 0.1 0 4.1 1.8 5.8 0.7 0.8 1.9 1.2 3.1 1.2 3.9 0 6-2.8 7.3-6.6 0.3-0.4 0.4-0.8 0.5-1.2 1.8-4.2 2-6.8 2.8-10 0.4-1.5 0.4-3.4 0.7-4.9l0.4-2.4c0.1-0.8 0.4-1.8 0.4-2.6v-0.5C676.8 92.8 676.8 92.8 676.7 92.9zM659.9 56.8c0.9-1.2 1.6-2.4 2.3-3.5 0.3-0.5 0.5-1.1 0.8-1.9 0.4-0.9 0.5-1.9 0.5-2.8 0-0.7-0.1-1.1-0.5-1.1 -0.7 0.1-1.2 0.9-1.5 1.6 -0.7 1.6-1.1 3.7-1.4 5.6L659.9 56.8z"/></svg>