<?xml version="1.0" encoding="utf-8"?>
<!-- Generator: Adobe Illustrator 19.0.1, SVG Export Plug-In . SVG Version: 6.00 Build 0)  -->
<svg version="1.1" id="Layer_1" xmlns="http://www.w3.org/2000/svg" xmlns:xlink="http://www.w3.org/1999/xlink" x="0px" y="0px"
	 viewBox="0 0 72 73.5" style="enable-background:new 0 0 72 73.5;" xml:space="preserve">
<style type="text/css">
	.st0{fill:none;}
	.st1{fill:#FFFFFF;}
	.st2{fill:#006241;}
</style>
<g>
	<g>
		<g>
			<path class="st0" d="M7,43.9l-0.6-3.8l0,0l-0.3,3.9l-0.9,0.2l-1.6-3.6l0,0l0.7,3.8l-1.1,0.2l-1-5.5l1.6-0.3l1.5,3.4l0,0l0.2-3.7
				l1.7-0.3l1,5.5L7,43.9z"/>
			<path class="st0" d="M11.7,43.1l-0.4-1L10,42.4l0,1l-1.2,0.2l0.4-5.7l1.6-0.3l2.3,5.3L11.7,43.1z M10.1,38.9L10.1,38.9L10,41.4
				l0.9-0.2L10.1,38.9z"/>
			<path class="st0" d="M15,38.2c-0.2-0.2-0.5-0.3-0.8-0.2c-0.3,0-0.5,0.3-0.4,0.7c0.1,0.3,0.3,0.4,0.8,0.6c0.6,0.2,1.3,0.4,1.5,1.4
				c0.2,1.2-0.5,1.9-1.4,2.1c-0.7,0.1-1.3-0.1-1.7-0.3l0.5-1c0.3,0.2,0.6,0.3,1,0.3c0.3-0.1,0.5-0.3,0.4-0.7
				c-0.1-0.4-0.4-0.5-0.9-0.6c-0.7-0.2-1.2-0.5-1.4-1.4c-0.2-1.2,0.6-1.9,1.4-2c0.6-0.1,1.1,0,1.5,0.3L15,38.2z"/>
			<path class="st0" d="M17.9,37.4l0.8,4.5l-1.2,0.2l-0.8-4.5l-1,0.2l-0.2-1.1l3.2-0.6l0.2,1.1L17.9,37.4z"/>
			<path class="st0" d="M20.2,41.6l-1-5.5l2.7-0.5l0.2,1.1L20.6,37l0.2,1.1l1.4-0.2l0.2,1L21,39.1l0.2,1.2l1.6-0.3l0.2,1.1
				L20.2,41.6z"/>
			<path class="st0" d="M26,40.6l-1.1-2.1l-0.4,0.1l0.4,2.2L23.7,41l-1-5.5l1.8-0.3c1.1-0.2,1.8,0.3,2,1.4c0.1,0.8-0.2,1.3-0.5,1.5
				l1.4,2.3L26,40.6z M24.5,36.2l-0.4,0.1l0.2,1.4l0.4-0.1c0.4-0.1,0.6-0.3,0.5-0.8C25.2,36.2,24.8,36.2,24.5,36.2z"/>
			<path class="st0" d="M29.5,40l-1-5.5l1.3-0.2l0.8,4.4l1.5-0.3l0.2,1.2L29.5,40z"/>
			<path class="st0" d="M34.4,39.2c-1.3,0.2-2.3-0.8-2.6-2.5c-0.3-1.7,0.3-3,1.6-3.3c1.3-0.2,2.3,0.8,2.6,2.5
				C36.4,37.7,35.7,39,34.4,39.2z M33.6,34.6c-0.6,0.1-0.7,0.9-0.5,1.8c0.2,1,0.6,1.6,1.1,1.5c0.6-0.1,0.7-0.9,0.5-1.8
				C34.6,35.2,34.2,34.5,33.6,34.6z"/>
			<path class="st0" d="M39.3,38.4c-1.4,0.2-2.4-0.8-2.7-2.5c-0.3-1.7,0.3-3.1,1.6-3.3c0.7-0.1,1.3,0.1,1.7,0.4l-0.5,1
				c-0.2-0.2-0.5-0.3-0.8-0.3c-0.7,0.1-0.9,1-0.7,1.9c0.2,0.9,0.6,1.7,1.3,1.5c0.2,0,0.3-0.1,0.4-0.2l-0.2-1l-0.6,0.1L38.5,35
				l1.7-0.3l0.5,2.9C40.4,38,40,38.2,39.3,38.4z"/>
			<path class="st0" d="M43.6,37.6c-1.3,0.2-2.3-0.8-2.6-2.5c-0.3-1.7,0.3-3,1.6-3.3c1.3-0.2,2.3,0.8,2.6,2.5
				C45.5,36.1,44.9,37.4,43.6,37.6z M42.8,33c-0.6,0.1-0.7,0.9-0.5,1.8c0.2,1,0.6,1.6,1.1,1.5c0.6-0.1,0.7-0.9,0.5-1.8
				C43.7,33.6,43.3,32.9,42.8,33z"/>
			<path class="st0" d="M49.5,36.4l-1.4,0.2L49,32l-1.9,0.3l-0.2-1.1l3.2-0.6l0.2,0.9L49.5,36.4z"/>
			<path class="st0" d="M52.3,36.2l-0.7,0l0.4-6.3l0.7,0L52.3,36.2z"/>
			<path class="st0" d="M56.3,32.9l-0.8,1.4l1.8-0.3l0.2,1.1l-3.3,0.6L54,34.5l1.3-2.2c0.2-0.4,0.3-0.7,0.3-1
				c-0.1-0.3-0.2-0.6-0.6-0.5c-0.3,0.1-0.5,0.3-0.4,0.8l-1.2,0.1c-0.1-1.1,0.5-1.8,1.5-2c1-0.2,1.8,0.3,1.9,1.3
				C57,31.7,56.6,32.3,56.3,32.9z"/>
			<path class="st0" d="M60,34.7c-1.5,0.3-2.1-1.3-2.3-2.6c-0.2-1.2-0.2-2.9,1.3-3.2c1.5-0.3,2.1,1.3,2.3,2.6
				C61.5,32.8,61.5,34.4,60,34.7z M59.2,30.1c-0.5,0.1-0.4,1.2-0.3,1.9c0.1,0.7,0.4,1.8,0.9,1.7c0.5-0.1,0.4-1.1,0.3-1.9
				C59.9,31,59.7,30,59.2,30.1z"/>
			<path class="st0" d="M63.7,33.9L63,29.9l-0.7,0.8l-0.7-0.9l1.3-1.4l1.1-0.2l1,5.5L63.7,33.9z"/>
			<path class="st0" d="M69.2,31.8l0.2,1.1l-1.1,0.2L68.1,32l-2,0.4l-0.2-1.1l1-3.6l1.5-0.3l0.6,3.4l0.6-0.1l0.2,1L69.2,31.8z
				 M67.6,28.8L67.6,28.8L67,31.1l1-0.2L67.6,28.8z"/>
		</g>
		<g>
			<g>
				<circle class="st1" cx="36" cy="36" r="36"/>
				<path class="st2" d="M39.6,15.6c-0.3-0.1-1.8-0.3-3.6-0.3c-1.8,0-3.3,0.3-3.6,0.3c-0.2,0-0.2-0.1-0.1-0.2
					c0.1-0.1,3.7-2.8,3.7-2.8s3.6,2.7,3.7,2.8C39.9,15.4,39.8,15.6,39.6,15.6z M33.4,33.4c0,0-0.2,0.1-0.2,0.2
					c0.8,0.6,1.3,1.9,2.9,1.9c1.6,0,2.1-1.3,2.9-1.9c-0.1-0.2-0.2-0.2-0.2-0.2s-1,0.2-2.6,0.2C34.4,33.6,33.4,33.4,33.4,33.4z
					 M36,31.2c-0.4,0-0.5-0.2-0.8-0.2c-0.3,0-0.8,0.2-1,0.4c0,0.1,0,0.2,0.1,0.3c0.6,0.1,0.9,0.5,1.7,0.5c0.7,0,1-0.4,1.7-0.5
					c0.1-0.1,0.1-0.2,0.1-0.3c-0.1-0.2-0.7-0.4-1-0.4C36.5,31,36.4,31.2,36,31.2z M71.9,38c0,0.9-0.1,1.7-0.2,2.6
					c-4.1,0.7-5.5-3-9.7-2.8c0.2,0.9,0.4,1.8,0.6,2.7c3.4,0,4.8,3.2,8.7,2.7c-0.2,1-0.4,2-0.7,2.9c-3,0.3-4.1-2.7-7.6-2.6
					c0,0.5,0,1,0,1.5c0,0.3,0,0.6,0,0.8c3,0,4,2.7,6.8,2.6c-0.4,1-0.8,1.9-1.2,2.8c-2-0.1-2.8-2.7-5.9-2.5c-0.1,0.7-0.2,1.3-0.4,2
					c2.7-0.2,3.3,2.3,5.2,2.5c-0.5,0.9-1,1.8-1.6,2.6c-1.1-0.6-2.1-2.5-4.3-2.6c0.2-0.7,0.4-1.4,0.6-2.1c-1.9,0-4.1-0.8-6-2.4
					c0.6-3.4-4.7-6.9-4.7-9.4c0-2.7,1.4-4.2,1.4-7.9c0-2.7-1.3-5.7-3.3-7.7c-0.4-0.4-0.8-0.7-1.2-1c1.8,2.3,3.2,4.9,3.2,8.1
					c0,3.4-1.6,5.3-1.6,8.5c0,3.2,4.7,5.9,4.7,9.2c0,1.3-0.4,2.6-1.8,5c2.1,2.1,4.8,3.2,6.6,3.2c0.6,0,0.9-0.2,1.1-0.6
					c0.2-0.4,0.3-0.8,0.5-1.2c1.9,0.1,2.8,1.8,3.8,2.5c-0.6,0.8-1.2,1.5-1.8,2.2c-0.7-0.8-1.6-2.1-3-2.5c-0.2,0.5-0.5,1-0.8,1.4
					c1.2,0.3,2,1.5,2.6,2.3c-0.7,0.7-1.4,1.4-2.1,2c-0.5-0.7-1.2-1.6-2-2.1c-0.3,0.4-0.6,0.8-0.9,1.2c0.7,0.5,1.3,1.3,1.7,2
					c-0.8,0.7-1.7,1.3-2.6,1.9c-0.4-3.7-5.4-6.2-4.1-10.4c-0.4,0.7-1,1.7-1,2.8c0,3.1,3.3,5.5,3.5,8.6c-0.7,0.4-1.4,0.8-2.1,1.1
					c-0.1-3.4-3.6-7-3.6-9.8c0-3.1,4-6.2,4-9.8c0-3.6-4.6-6.1-4.6-9.3c0-3.2,2-5,2-9.1c0-3-1.4-6-3.6-8c-0.4-0.3-0.8-0.6-1.2-0.9
					c2.1,2.5,3.3,4.7,3.3,8.2c0,3.8-2.3,6-2.3,9.7c0,3.8,4.6,5.8,4.6,9.4c0,3.5-4.2,6.5-4.2,10.1c0,3.3,3.7,6.5,3.8,10.4
					c-0.8,0.4-1.7,0.7-2.5,1c0.5-3.9-3.7-8-3.7-11.2c0-3.5,4.4-6.5,4.4-10.3c0-3.8-4.5-5.5-4.5-9.4s2.7-6,2.7-10.3
					c0-3.3-1.6-6.3-4.1-8.2c-0.1,0-0.1-0.1-0.2-0.1c-0.2-0.2-0.4,0-0.3,0.2C44,22.9,45,25,45,28.2c0,3.9-3.2,7.1-3.2,10.9
					c0,4.5,4.2,5.8,4.2,9.4c0,3.7-4.5,6.6-4.5,10.5c0,3.6,4.3,7.6,3.6,11.8c-0.9,0.2-1.7,0.4-2.6,0.6c0.8-5.2-3.4-8.9-3.4-12.3
					c0-3.7,4.7-7,4.7-10.6c0-3.4-3.4-4.5-3.8-8c-0.1-0.5-0.4-0.8-1-0.7c-0.7,0.1-1.6,0.6-2.9,0.6c-1.4,0-2.3-0.5-2.9-0.6
					c-0.5-0.1-0.9,0.3-1,0.7c-0.4,3.5-3.8,4.6-3.8,8c0,3.6,4.7,6.9,4.7,10.6c0,3.4-4.2,7.1-3.4,12.3c-0.9-0.2-1.8-0.4-2.6-0.6
					c-0.7-4.2,3.6-8.2,3.6-11.8c0-3.9-4.5-6.8-4.5-10.5c0-3.7,4.2-5,4.2-9.4c0-3.8-3.2-7-3.2-10.9c0-3.2,0.9-5.3,2.6-7.5
					c0.2-0.2,0-0.4-0.3-0.2c-0.1,0-0.1,0.1-0.2,0.1c-2.4,1.9-4.1,4.9-4.1,8.2c0,4.3,2.7,6.4,2.7,10.3s-4.5,5.6-4.5,9.4
					c0,3.8,4.4,6.8,4.4,10.3c0,3.2-4.2,7.3-3.7,11.2c-0.8-0.3-1.7-0.6-2.5-1c0.1-3.9,3.8-7.2,3.8-10.4c0-3.6-4.2-6.6-4.2-10.1
					c0-3.5,4.6-5.6,4.6-9.4c0-3.8-2.3-5.9-2.3-9.7c0-3.4,1.2-5.7,3.3-8.2c-0.5,0.2-0.8,0.5-1.2,0.9c-2.2,1.9-3.6,5-3.6,8
					c0,4.1,2,5.9,2,9.1c0,3.2-4.6,5.7-4.6,9.3c0,3.6,4,6.7,4,9.8c0,2.8-3.5,6.4-3.6,9.8c-0.7-0.4-1.4-0.7-2.1-1.1
					c0.3-3.1,3.5-5.5,3.5-8.6c0-1.1-0.5-2.1-1-2.8c1.3,4.2-3.6,6.8-4.1,10.4c-0.9-0.6-1.8-1.3-2.6-1.9c0.4-0.7,1-1.5,1.7-2
					c-0.3-0.4-0.6-0.8-0.9-1.2c-0.8,0.5-1.5,1.4-2,2.1c-0.7-0.6-1.4-1.3-2.1-2c0.6-0.8,1.4-2,2.6-2.3c-0.3-0.5-0.5-0.9-0.8-1.4
					c-1.4,0.4-2.3,1.7-3,2.5c-0.6-0.7-1.2-1.5-1.8-2.2c1-0.7,1.9-2.4,3.8-2.5c0.2,0.4,0.3,0.8,0.5,1.2c0.2,0.4,0.5,0.6,1.1,0.6
					c1.8,0,4.5-1.1,6.6-3.2c-1.4-2.5-1.8-3.7-1.8-5c0-3.3,4.7-6,4.7-9.2c0-3.2-1.6-5-1.6-8.5c0-3.1,1.4-5.8,3.2-8.1
					c-0.5,0.3-0.8,0.6-1.2,1c-2,2-3.3,5-3.3,7.7c0,3.7,1.4,5.2,1.4,7.9c0,2.5-5.3,6-4.7,9.4c-1.8,1.7-4.1,2.4-6,2.4
					c0.2,0.7,0.4,1.4,0.6,2.1c-2.2,0.1-3.2,2-4.3,2.6c-0.6-0.9-1.1-1.7-1.6-2.6c1.9-0.2,2.5-2.7,5.2-2.5c-0.1-0.7-0.3-1.3-0.4-2
					c-3.1-0.2-3.8,2.4-5.9,2.5c-0.4-0.9-0.8-1.9-1.2-2.8C5.1,48.6,6,45.8,9,45.8c0-0.3,0-0.6,0-0.8c0-0.5,0-1,0-1.5
					c-3.5-0.1-4.6,2.9-7.6,2.6c-0.3-1-0.5-1.9-0.7-2.9c3.8,0.5,5.2-2.7,8.7-2.7c0.2-0.9,0.4-1.8,0.6-2.7c-4.2-0.2-5.6,3.5-9.7,2.8
					c-0.1-0.8-0.2-1.7-0.2-2.6c4.7,0.5,6.5-3.4,10.8-2.9c0.4-1,0.9-2,1.4-3C6.9,31.1,5,35.7,0,35C0.6,15.6,16.5,0,36,0
					c19.5,0,35.4,15.6,36,35c-5,0.7-6.9-3.8-12.3-2.9c0.5,1,1,2,1.4,3C65.4,34.6,67.2,38.5,71.9,38z M20.5,22.9
					c-2.6-1.1-5.9-0.8-8.6,0.9c-0.4-2.6-1.8-4.8-3.8-6.2c-0.3-0.2-0.6,0-0.5,0.3C8,23.3,4.9,28,1,32.1c4,1.2,7.4-3.9,12.6-2.1
					C15.4,27.2,17.8,24.8,20.5,22.9z M36,19.6c-3.3,0-6.1,1.9-6.9,4.3c-0.1,0.2,0,0.3,0.2,0.2c0.6-0.3,1.3-0.4,2-0.4
					c1.4,0,2.6,0.5,3.3,1.4c0.3,1,0.3,2.5,0,3.4c-0.6-0.1-0.8-0.6-1.3-0.6c-0.5,0-1,0.4-1.9,0.4c-0.9,0-1-0.4-1.6-0.4
					c-0.7,0-0.9,0.7-0.9,1.6c0,3.7,3.4,8.8,7.1,8.8c3.6,0,7.1-5.1,7.1-8.8c0-0.8-0.2-1.6-0.9-1.6c-0.4,0.3-0.7,0.5-1.6,0.5
					c-0.9,0-1.2-0.4-1.7-0.4c-0.7,0-0.6,1.4-1.4,1.5c-0.5-1.3-0.5-2.9-0.1-4.3c0.7-0.9,1.9-1.4,3.3-1.4c0.7,0,1.4,0.1,2,0.4
					c0.2,0.1,0.3,0,0.2-0.2C42.1,21.5,39.3,19.6,36,19.6z M41.3,25c-0.8,0-1.7,0.2-2.3,0.9c-0.1,0.2-0.1,0.4,0,0.6
					c1.5-0.5,2.7-0.5,3.4,0.2c0.3-0.3,0.4-0.6,0.4-0.9C42.8,25.3,42.3,25,41.3,25z M29.6,26.7c0.7-0.7,2.2-0.7,3.7-0.1
					c0.1-0.8-1.3-1.6-2.7-1.6c-1,0-1.5,0.3-1.5,0.8C29.2,26.1,29.3,26.4,29.6,26.7z M52.7,14.1c-2.6,0.2-4.9,1.1-6.8,2.6
					c0.8-2.2,1.8-4.2,3.1-6.1c-3.4,0.4-6.2,1.6-8.2,3.7l-1.6-4.2l3.6-3.1l-4.8-0.3L36,2.1l-1.9,4.4l-4.8,0.3l3.6,3.1l-1.6,4.2
					c-2.1-2.1-4.9-3.3-8.2-3.7c1.3,1.9,2.3,3.8,3.1,6.1c-1.9-1.5-4.1-2.4-6.8-2.6c1.6,2,3,4.2,4,6.5c0.1,0.3,0.4,0.3,0.6,0.2
					C27.6,19,31.7,18,36,18c4.3,0,8.4,1,12,2.8c0.3,0.1,0.5,0,0.6-0.2C49.7,18.3,51.1,16.1,52.7,14.1z M58.4,30
					c5.2-1.8,8.6,3.3,12.6,2.1c-3.9-4.1-7-8.8-6.6-14.2c0-0.3-0.3-0.5-0.5-0.3c-2,1.4-3.4,3.6-3.8,6.2c-2.7-1.8-5.9-2-8.6-0.9
					C54.2,24.8,56.6,27.2,58.4,30z"/>
			</g>
		</g>
	</g>
	<g>
		<path class="st2" d="M59.3,67.5c1.6,0,3,1.3,3,3c0,1.7-1.4,3-3,3c-1.6,0-3-1.3-3-3C56.3,68.8,57.7,67.5,59.3,67.5z M59.3,73.1
			c1.4,0,2.5-1.1,2.5-2.6c0-1.4-1.1-2.6-2.5-2.6c-1.4,0-2.5,1.1-2.5,2.6C56.9,72,58,73.1,59.3,73.1z M58.2,68.8h1.3
			c0.8,0,1.2,0.3,1.2,1c0,0.6-0.4,0.9-0.9,1l1,1.5h-0.6l-0.9-1.5h-0.6v1.5h-0.5V68.8z M58.7,70.3h0.5c0.5,0,0.9,0,0.9-0.6
			c0-0.5-0.4-0.5-0.8-0.5h-0.7V70.3z"/>
	</g>
</g>
</svg>
