<svg id="Layer_1" data-name="Layer 1" xmlns="http://www.w3.org/2000/svg" viewBox="0 0 651 233.92"><defs><style>.cls-1{fill:#fff;}</style></defs><title>logo</title><path class="cls-1" d="M125.29,0a65.29,65.29,0,1,0,65.29,65.29A65.29,65.29,0,0,0,125.29,0Zm39.36,97.93s-3.15-14.2-8.23-22.67c-2.72-4.6-7-8.38-12.67-8.27-4,.09-7.46,2.31-11.83,8.39-2.6,3.65-6.63,12.95-6.63,12.95s-4-9.29-6.63-12.95c-4.35-6.08-7.82-8.3-11.8-8.39-5.69-.1-10,3.67-12.72,8.27-5.08,8.48-8.22,22.67-8.22,22.67H81.29l25-81.61L125.13,80l0.16,0.15,0.17-.15,18.88-63.72,24.94,81.61h-4.64Z"/><path class="cls-1" d="M353.79,23.38c-18.27,0-32,14.05-32,32.69s13.76,32.56,32,32.56S386,74.62,386,56.07,372.14,23.38,353.79,23.38Zm0,53.27c-10.94,0-18.89-8.65-18.89-20.58s7.95-20.58,18.89-20.58,19,8.66,19,20.58S364.81,76.66,353.79,76.66Z"/><path class="cls-1" d="M471.77,23.38c-18.27,0-32,14.05-32,32.69s13.78,32.56,32,32.56S504,74.62,504,56.07,490.12,23.38,471.77,23.38Zm0,53.27c-11,0-18.9-8.65-18.9-20.58s7.94-20.58,18.9-20.58,19,8.66,19,20.58S482.8,76.66,471.77,76.66Z"/><path id="_Path_" data-name="&lt;Path&gt;" class="cls-1" d="M416.44,0h-12.8V25H391.3V36.7h12.34V64.89c0,13.31,8.09,22.24,20.11,22.24a60.28,60.28,0,0,0,7.75-.5V74.89s-3,.22-5.18.22c-0.89,0-1.75,0-2.54-.07-6.06-.33-7.34-5.45-7.34-9.68V36.7H431.5V25H416.44V0Z"/><path id="_Path_2" data-name="&lt;Path&gt;" class="cls-1" d="M287.16,23.41c-7.66,0-14,2.66-18.38,7.31-4.36-4.65-11-7.31-18.69-7.31-14.71,0-24.7,9.83-24.7,24.7V87H238V47.49c0-7,4.79-12.06,12.06-12.06s12.36,5,12.36,12.06V87h12.63V48.11a29.63,29.63,0,0,0-.48-5.44c2.13-4.4,7.09-7.25,12.55-7.25,7.25,0,12,5,12,12.06V87h12.64V48.11C311.84,33.24,301.85,23.41,287.16,23.41Z"/><polygon id="_Path_3" data-name="&lt;Path&gt;" class="cls-1" points="591 27.3 587.09 23.39 558.38 52.1 529.67 23.39 525.76 27.3 554.47 56.02 525.76 84.72 529.67 88.63 558.38 59.92 587.09 88.63 591 84.72 562.3 56.02 591 27.3"/><path class="cls-1" d="M233.47,120.82h-4.41v9.75h-3.67v-26h8.08c5.71,0,8.91,3.62,8.91,8.08S239.18,120.82,233.47,120.82Zm-4.41-3.11h4.18c3.16,0,5.39-1.86,5.39-5.06s-2.23-5-5.39-5h-4.18v10Z"/><path class="cls-1" d="M249.16,122V104.57h3.67v17.32c0,3.06,1.49,6,5.48,6s5.48-2.88,5.48-5.94V104.57h3.53V122c0,4.92-2.92,9-9.05,9S249.16,127,249.16,122Z"/><path class="cls-1" d="M283.46,119.57h-4.32v11h-3.67v-26H284c5.57,0,8.82,3,8.82,7.38a7.2,7.2,0,0,1-5.71,7.15l7.1,11.47h-4.13Zm0.23-11.89h-4.55v8.73h4.55c3.2,0,5.43-1.58,5.43-4.41S286.9,107.68,283.7,107.68Z"/><path class="cls-1" d="M318.61,107.73H304v8.08h9.24v3.06H304v8.59h14.58v3.11H300.36v-26h18.25v3.16Z"/><path class="cls-1" d="M352.35,107.73H337.77v8.08H347v3.06h-9.24v8.59h14.58v3.11H334.1v-26h18.25v3.16Z"/><path class="cls-1" d="M367.94,130.57h-7.85v-26h7.85c8.5,0,13.32,5.29,13.32,13S376.44,130.57,367.94,130.57Zm-0.56-22.94h-3.62v19.87h3.62c6.27,0,10.17-3.25,10.17-9.94S373.65,107.64,367.38,107.64Z"/><path class="cls-1" d="M389,104.57h3.67v26H389v-26Z"/><path class="cls-1" d="M420,104.57v3.16H412v22.84h-3.67V107.73h-7.94v-3.16H420Z"/><path class="cls-1" d="M427.71,104.57h3.67v26h-3.67v-26Z"/><path class="cls-1" d="M466.24,117.57a13.56,13.56,0,1,1-13.56-13.46A13.24,13.24,0,0,1,466.24,117.57Zm-3.76,0c0-5.85-4-10.26-9.8-10.26s-9.8,4.41-9.8,10.26,4,10.26,9.8,10.26S462.48,123.47,462.48,117.57Z"/><path class="cls-1" d="M477.51,130.57H474v-26h4.74l11,20.89V104.57h3.53v26h-4.6l-11.1-21v21Z"/><path class="cls-1" d="M60,233.6V210.9h6.92a9.23,9.23,0,0,1,6.88,2.77,9.75,9.75,0,0,1,2.72,7.12v2.91a9.72,9.72,0,0,1-2.72,7.12,9.24,9.24,0,0,1-6.88,2.77H60Zm1.87-21.11V232h5.05a7.24,7.24,0,0,0,5.55-2.35,8.42,8.42,0,0,0,2.18-6v-3a8.34,8.34,0,0,0-2.19-5.91,7.24,7.24,0,0,0-5.54-2.35H61.87Z"/><path class="cls-1" d="M95.92,222.61H85.75V232H97.51v1.57H83.87V210.9H97.44v1.59H85.75V221H95.92v1.59Z"/><path class="cls-1" d="M116.67,228.08a3.57,3.57,0,0,0-1.39-2.88,14.16,14.16,0,0,0-4.71-2.14,15.76,15.76,0,0,1-5.53-2.49,4.87,4.87,0,0,1-1.89-4,5.22,5.22,0,0,1,2.12-4.28,8.46,8.46,0,0,1,5.41-1.68,8,8,0,0,1,5.56,1.89,6,6,0,0,1,2,4.81l0,0.09h-1.75a4.82,4.82,0,0,0-1.63-3.73,6,6,0,0,0-4.2-1.48,6.29,6.29,0,0,0-4.15,1.25,3.86,3.86,0,0,0-1.5,3.08,3.51,3.51,0,0,0,1.36,2.84,14,14,0,0,0,4.81,2.08,15.71,15.71,0,0,1,5.47,2.57,5,5,0,0,1,1.89,4.05,5,5,0,0,1-2.21,4.26,9.17,9.17,0,0,1-5.56,1.61,10.1,10.1,0,0,1-5.85-1.71,5.48,5.48,0,0,1-2.42-5l0-.09h1.73a4.35,4.35,0,0,0,2,3.92,8.11,8.11,0,0,0,4.52,1.29,7,7,0,0,0,4.24-1.19A3.65,3.65,0,0,0,116.67,228.08Z"/><path class="cls-1" d="M127.88,233.6H126V210.9h1.87v22.7Z"/><path class="cls-1" d="M152.69,230.54a7,7,0,0,1-2.77,2.31,10.75,10.75,0,0,1-5.09,1.08,8.33,8.33,0,0,1-6.41-2.7,9.88,9.88,0,0,1-2.49-7v-4.16a9.78,9.78,0,0,1,2.42-6.86,8.07,8.07,0,0,1,6.25-2.65,8.47,8.47,0,0,1,5.87,1.95,6.18,6.18,0,0,1,2.11,5l0,0.09h-1.71a5.1,5.1,0,0,0-1.62-3.88,6.45,6.45,0,0,0-4.6-1.53,6.13,6.13,0,0,0-4.93,2.21,8.49,8.49,0,0,0-1.87,5.67v4.19a8.65,8.65,0,0,0,1.95,5.83,6.37,6.37,0,0,0,5.08,2.28,9.13,9.13,0,0,0,3.9-.72,4.82,4.82,0,0,0,2.1-1.67v-5.81h-6.11v-1.59h8v8Z"/><path class="cls-1" d="M177.66,233.6h-1.87L162.9,214.17l-0.09,0V233.6h-1.87V210.9h1.87l12.89,19.38,0.09,0V210.9h1.87v22.7Z"/><path class="cls-1" d="M197.9,222.61H187.72V232h11.77v1.57H185.85V210.9h13.56v1.59H187.72V221H197.9v1.59Z"/><path class="cls-1" d="M205.84,233.6V210.9h6.92a9.23,9.23,0,0,1,6.88,2.77,9.75,9.75,0,0,1,2.72,7.12v2.91a9.72,9.72,0,0,1-2.72,7.12,9.24,9.24,0,0,1-6.88,2.77h-6.92Zm1.87-21.11V232h5.05a7.24,7.24,0,0,0,5.55-2.35,8.42,8.42,0,0,0,2.18-6v-3a8.34,8.34,0,0,0-2.19-5.91,7.24,7.24,0,0,0-5.54-2.35h-5.05Z"/><path class="cls-1" d="M239.87,233.6V210.9h6.62a9,9,0,0,1,5.52,1.49,5.25,5.25,0,0,1,2,4.48,4.83,4.83,0,0,1-1,3,5.12,5.12,0,0,1-2.58,1.81,5.3,5.3,0,0,1,3.52,1.87,5.62,5.62,0,0,1,1.36,3.76,5.73,5.73,0,0,1-2,4.68,8,8,0,0,1-5.28,1.64h-8.21Zm1.87-12.52h5.46a5.68,5.68,0,0,0,3.64-1.13,3.88,3.88,0,0,0,1.29-3.14,3.8,3.8,0,0,0-1.43-3.23,6.88,6.88,0,0,0-4.19-1.08h-4.75v8.59Zm0,1.57V232h6.34a5.83,5.83,0,0,0,3.94-1.24,4.34,4.34,0,0,0,1.43-3.47,4.25,4.25,0,0,0-1.41-3.31,5.73,5.73,0,0,0-3.78-1.35h-6.53Z"/><path class="cls-1" d="M267.94,223.51l7-12.61h2.17l-8.28,14.4v8.29H267v-8.37l-8.21-14.33H261Z"/><path class="cls-1" d="M301.82,210.9h3.77v15.88a6.93,6.93,0,0,1-2,5.21,7.08,7.08,0,0,1-5.15,1.93,7.8,7.8,0,0,1-5.32-1.71,6.08,6.08,0,0,1-1.89-5l0-.09h3.66a3.9,3.9,0,0,0,.93,2.86,3.49,3.49,0,0,0,2.58.93,3,3,0,0,0,2.42-1.12,4.5,4.5,0,0,0,.94-3V210.9Z"/><path class="cls-1" d="M330.56,224.29a9.59,9.59,0,0,1-2.61,6.9,9,9,0,0,1-6.79,2.74,8.65,8.65,0,0,1-6.62-2.74,9.71,9.71,0,0,1-2.56-6.9v-4.08a9.73,9.73,0,0,1,2.55-6.89,8.64,8.64,0,0,1,6.63-2.74,9,9,0,0,1,6.78,2.74,9.58,9.58,0,0,1,2.62,6.89v4.08Zm-3.79-4.12a7.06,7.06,0,0,0-1.51-4.66,5,5,0,0,0-4.1-1.82,4.76,4.76,0,0,0-4,1.82,7.29,7.29,0,0,0-1.44,4.66v4.12a7.34,7.34,0,0,0,1.45,4.7,4.76,4.76,0,0,0,3.94,1.83,5,5,0,0,0,4.11-1.82,7.16,7.16,0,0,0,1.5-4.71v-4.12Z"/><path class="cls-1" d="M354.69,233.6h-3.79l-10.05-16.35-0.09,0V233.6H337V210.9h3.79l10.05,16.35,0.09,0V210.9h3.79v22.7Z"/><path class="cls-1" d="M374,228.3h-8l-1.75,5.3h-3.91l7.92-22.7h3.6l7.83,22.7h-3.91Zm-7-3.16h6L370,216.19h-0.09Z"/><path class="cls-1" d="M399.26,213.94h-7V233.6h-3.79V213.94h-6.91v-3h17.71v3Z"/><path class="cls-1" d="M422.27,233.6h-3.79v-9.68H408.33v9.68h-3.79V210.9h3.79v10h10.15v-10h3.79v22.7Z"/><path class="cls-1" d="M441.53,228.3h-8l-1.75,5.3h-3.91l7.92-22.7h3.6l7.83,22.7h-3.91Zm-7-3.16h6l-2.91-8.95h-0.09Z"/><path class="cls-1" d="M470.09,233.6H466.3l-10.05-16.35-0.09,0V233.6h-3.79V210.9h3.79l10.05,16.35,0.09,0V210.9h3.79v22.7Z"/><path class="cls-1" d="M499.42,228.3h-8l-1.75,5.3h-3.91l7.92-22.7h3.6l7.83,22.7h-3.91Zm-7-3.16h6l-2.91-8.95h-0.09Z"/><path class="cls-1" d="M510.26,233.6V210.9h7.5a9.52,9.52,0,0,1,7,2.7,9.38,9.38,0,0,1,2.7,6.94V224a9.35,9.35,0,0,1-2.7,6.94,9.55,9.55,0,0,1-7,2.68h-7.5ZM514,213.94v16.63h3.71a5.45,5.45,0,0,0,4.33-1.85A7,7,0,0,0,523.7,224V220.5a6.93,6.93,0,0,0-1.61-4.72,5.45,5.45,0,0,0-4.33-1.85H514Z"/><path class="cls-1" d="M537.83,230.57h10.63v3H534V210.9h3.79v19.67Z"/><path class="cls-1" d="M566.74,223.39h-8.89v7.19h10.48v3H554.06V210.9h14.15v3H557.85v6.41h8.89v3Z"/><path class="cls-1" d="M577.92,224.18v9.42h-3.79V210.9h7.81a9,9,0,0,1,5.86,1.71,6,6,0,0,1,2.07,4.89,5.07,5.07,0,0,1-.91,3,6.27,6.27,0,0,1-2.66,2,4.79,4.79,0,0,1,2.77,2,6.34,6.34,0,0,1,.85,3.4v1.89a7.65,7.65,0,0,0,.25,1.95,2.79,2.79,0,0,0,.83,1.45v0.36h-3.9a2.49,2.49,0,0,1-.79-1.61,14,14,0,0,1-.17-2.18V228a3.8,3.8,0,0,0-1-2.77,3.65,3.65,0,0,0-2.74-1h-4.47Zm0-3h3.82a5.14,5.14,0,0,0,3.32-.87,3.28,3.28,0,0,0,1-2.67,3.53,3.53,0,0,0-1-2.69,4.41,4.41,0,0,0-3.13-1h-4v7.2Z"/><rect class="cls-1" y="169.57" width="651" height="2"/></svg>