<svg id="Layer_1" data-name="Layer 1" xmlns="http://www.w3.org/2000/svg" viewBox="0 0 928.2 121.7"><defs><style>.cls-1{fill:#525252;}</style></defs><title>presented-by_black</title><path class="cls-1" d="M0,71.9A1.76,1.76,0,0,1,1.8,70c8.1,0,8.7-15.4,22.8-15.4,11.1,0,14.8,16,26.1,16,10,0,16.8-15.7,26.1-15.7,12,0,15.3,14,31.1,14,13.9,0,11.4-14,25.1-14,13.5,0,11.9,13.7,22.9,13.7,12.2,0,17.8-14.8,30.3-14.8S199.3,70,209.2,70c1.3,0,2.1.4,2.1,1.7s-0.9,1.7-2.1,1.7c-11.9,0-12.5-16.2-23-16.2-11.1,0-16.7,14.8-30.3,14.8-13,0-11.2-13.7-22.9-13.7s-9.1,14-25.1,14c-16.5,0-21.8-14-31.1-14-8.7,0-15,15.7-26.1,15.7C38.8,74,32.8,58,24.6,58c-12,0-12,15.4-22.4,15.4-1.4.1-2.2-.5-2.2-1.5m716.9,0a1.73,1.73,0,0,1,1.8-1.8c8.1,0,8.7-15.4,22.8-15.4,11.1,0,14.8,16,26.1,16,10,0,16.8-15.7,26.1-15.7,12,0,15.3,14,31.1,14,13.9,0,11.4-14,25.1-14,13.5,0,11.9,13.7,22.9,13.7,12.2,0,17.8-14.8,30.3-14.8s13.1,16.2,23,16.2c1.3,0,2.1.4,2.1,1.7s-0.9,1.7-2.1,1.7c-11.9,0-12.5-16.2-23-16.2-11.1,0-16.7,14.8-30.3,14.8-13,0-11.2-13.7-22.9-13.7s-9.1,14-25.1,14c-16.5,0-21.8-14-31.1-14-8.7,0-15,15.7-26.1,15.7-11.9,0-17.9-16-26.1-16-12,0-12,15.4-22.4,15.4-1.4,0-2.2-.6-2.2-1.6" transform="translate(0 -3.3)"/><path class="cls-1" d="M283.9,66.6a2.42,2.42,0,0,1-.3,1.4l-0.8,1.6a41.5,41.5,0,0,1-4.1,6.2,22.32,22.32,0,0,1-4.6,4.9l-0.4.3c-2.8,2.2-3.7,2.6-7.6,3.5a27.18,27.18,0,0,1-5.1.7,31.28,31.28,0,0,1-7.7-.9l-1.8-.7a8.57,8.57,0,0,1-3.3-1.9,4.42,4.42,0,0,0-.8-0.9l-0.3-.4a3.91,3.91,0,0,1-.9-2.8,1.41,1.41,0,0,1,1.4-1.4,3.85,3.85,0,0,1,1.2.5,6.58,6.58,0,0,0,.9.9,6,6,0,0,0,3.5,2.7,2.38,2.38,0,0,0,1.4.3,6.53,6.53,0,0,0,3.7-.9c2-.9,3-2.6,4.1-4.1,1.4-1.8,1.9-4.1,2.6-6.2l0.3-.7a20.64,20.64,0,0,0,.7-5,13.1,13.1,0,0,0-.3-6.2c-1.1-2.8-1.1-3-1.2-3-1.5-4.1-5.4-4.9-7.6-4.9a9.79,9.79,0,0,0-1.9,0c-5,1.4-8.1,6.4-9.8,10.6a53.37,53.37,0,0,0-2.8,10v1.1a42.94,42.94,0,0,1-.3,7.2V81c-0.1,3.8-.3,7.9-0.7,11.5l-0.3,2-0.9,12.3a31.2,31.2,0,0,1-.9,6,1.33,1.33,0,0,0-.3.5v0.3h-0.1v0.3a14.7,14.7,0,0,0-.5,2.6c-1.1,3.1-2.8,6.9-6.8,7.7h-0.1a2.6,2.6,0,0,1-1.5-.4c-3.1-1.5-3.4-4.1-3.7-6.5a72.18,72.18,0,0,1,1.1-14l0.1-.3c0.8-4.9,1.9-7,3.7-11.7a58.32,58.32,0,0,1,1.8-6.1l1.5-4.7a67.78,67.78,0,0,0,2.3-6.8l0.5-1.4c0.8-1.9.8-4.1,2.2-8.1,0.1-2.2.1-3.9,0.1-5.1a27,27,0,0,0-2.7,5.1,25.55,25.55,0,0,1-2.2,4.2c-0.7,1.1-.9,1.6-2.3,1.2a1.58,1.58,0,0,1-1.2-1.4,1.33,1.33,0,0,1,.3-0.8c0.3-.4.7-1.4,1.1-1.9a59.32,59.32,0,0,0,3.4-7.2l2.2-4.6c0.5-1.5,1.2-3.4,1.5-4.7a47.61,47.61,0,0,0,0-7.7,1.74,1.74,0,0,1,2-1.8c1.4,0,2.6.4,2.7,1.5,0.3,1.6-.3,10.3-0.3,12.9a18.75,18.75,0,0,1,2.4-3.8c0.5-.5,4.6-4.9,10.6-4.6a14,14,0,0,1,5,1.1c4.3,1.8,7.3,6,8,11.5a14.36,14.36,0,0,1,.5,3.1,14.2,14.2,0,0,1-.3,4.5l-0.4,2.2s0,0.5-.1,1.4c-2,7.9-5.8,11.1-7.6,12.3a1.77,1.77,0,0,1-.8.5,12.88,12.88,0,0,0,6-1.4,19.47,19.47,0,0,0,6.4-4.3,33.36,33.36,0,0,0,3.3-3.8,41.46,41.46,0,0,0,3.5-5.7c0.7-1.2,1.2-1.9,2.4-1.5A3.21,3.21,0,0,1,283.9,66.6ZM238,80.8L237.6,82l-0.4,1.1c-1.6,5.4-3.1,10.3-4.5,15-0.7,3-1.4,6.1-2,9.8a16,16,0,0,0-.4,4.3c-0.1,1.1,0,2.2,0,3.3-0.3,1.9.1,3.4,1.1,3.9a2.89,2.89,0,0,0,1.9-2.3c0.7-1.5.9-3.3,1.5-4.9a25.15,25.15,0,0,1,.5-3.1,43.94,43.94,0,0,0,1.1-6.8c0.3-2.6.5-5.3,0.7-7.9,0.1-1.8.3-3.5,0.5-5.3a16.37,16.37,0,0,1,.4-3.8l-0.1-1.2,0.1-1.9A3.3,3.3,0,0,0,238,80.8Zm48.5-18-3.1,5.8c-0.7,1.1-1.1,1.6-1.8,1.6a1.7,1.7,0,0,1-.7-0.1,1.42,1.42,0,0,1-1.1-1.2,3.44,3.44,0,0,1,.1-0.9,11.6,11.6,0,0,1,.8-1.6,1.08,1.08,0,0,1,.4-0.5,51,51,0,0,0,3.4-6.4l1.9-4.2-0.1-.1-1.4-.9a12.55,12.55,0,0,1-4.2-7,8,8,0,0,1-.4-2.7,8.41,8.41,0,0,1,1.2-4.5,5.38,5.38,0,0,1,4.7-2.6c4.1,0,7,2.4,7.3,7V45a15.28,15.28,0,0,1-1.2,5.7,5.17,5.17,0,0,0-.5,1.9c0,0.3,1.1.7,1.9,0.7a11.62,11.62,0,0,0,4.9-.8c1.2-.5,2-1.5,3.5-3.4l0.4-.4a0.85,0.85,0,0,1,.9-0.5,1.68,1.68,0,0,1,1.1.3c1.6,0.5,1.8,1.4,1.8,1.5a6.69,6.69,0,0,1-.5,1.9,8.36,8.36,0,0,0-.7,1.6c-0.5.8-.9,2.2-1.6,3.8l-0.9,2.2a23.07,23.07,0,0,0-1.5,5.4c-0.5,2.6-.8,5.3-1.1,8,0,4.3.5,8.1,4.6,8.1,1.1,0,1.6-.3,3.3-1.1,0.9-.5,1.5-1.4,3.5-3.4,0.9-1.2,1.8-2.6,2.6-3.8a52.52,52.52,0,0,0,3.4-5.6c0.7-1.1,1.1-1.6,1.8-1.6a1.7,1.7,0,0,1,.7.1,1.42,1.42,0,0,1,1.1,1.2,3.44,3.44,0,0,1-.1.9,11.6,11.6,0,0,1-.8,1.6,4.35,4.35,0,0,1-.4.7,28.64,28.64,0,0,1-3.5,5.3c-1.8,2.4-2.6,4.1-3.4,4.9l-0.9,1.1c-1.9,2.2-2.6,2.6-3.8,3.1a9.16,9.16,0,0,1-3.8.8,4.92,4.92,0,0,1-1.4-.1h-0.3a5.15,5.15,0,0,1-2.2-.9,8,8,0,0,1-3.1-4.3,26,26,0,0,1-1.1-6.6V72.1l0.3-2.8a25.57,25.57,0,0,1,1.4-7.2l0.8-2.3c0.4-.9.8-2.2,1.1-3.1a6.58,6.58,0,0,0-1.5.4l-0.5.3a13.49,13.49,0,0,1-1.8.3c-0.7,0-1.4-.1-1.8-0.1a9,9,0,0,1-2.8-.4l-1.2-.4A47.26,47.26,0,0,0,286.5,62.8ZM287.4,41a1.7,1.7,0,0,0-.7-0.1c-1.5,0-2.3,1.9-2.4,3.3v0.3c0,1.8.8,4.6,1.8,5.6a8.62,8.62,0,0,0,2.3,1.6,33.55,33.55,0,0,0,1.4-3.1c0.1-.9.3-2.2,0.3-2.7C290,43.8,289.3,41.4,287.4,41Zm44.5,44.4c-0.9,0-1.9,0-3-.1a15.36,15.36,0,0,1-8-3.7c-3.3-3.9-4.1-8.9-4.1-12.6a21.79,21.79,0,0,1,.1-2.7,10.27,10.27,0,0,0,.5-2.4,5.62,5.62,0,0,1,.4-1.5,5.62,5.62,0,0,1,.4-1.5,2.47,2.47,0,0,1,.4-0.9,31.64,31.64,0,0,1,9.3-13.3,8.41,8.41,0,0,1,2.6-1.5,5.39,5.39,0,0,1,2.7-.7c0.3,0,.7-0.1,2.3-0.1a6.78,6.78,0,0,1,5.3,2,7,7,0,0,1,1.5,4.3,12.1,12.1,0,0,1-.7,3.7c-1.5,3.7-3.4,6.6-7.7,10.3a20.55,20.55,0,0,1-5.6,3.8l-0.8.4c-1.1.5-2,.4-3.4,1.1a3.38,3.38,0,0,0-1.1.7,12.13,12.13,0,0,0-1.4.5l-0.3.1a2.12,2.12,0,0,0-.3.7c0,4.1,2,6.9,3.8,8a3.36,3.36,0,0,0,1.4.8,11.45,11.45,0,0,0,3.5.7,14.08,14.08,0,0,0,2,.1,13.44,13.44,0,0,0,4.6-.8,19.53,19.53,0,0,0,7.2-5c0.9-.9,2-2.7,3-3.9a18.49,18.49,0,0,0,3.1-5.3c0.4-.8.7-1.2,1.4-1.2a2.49,2.49,0,0,1,.8.1,1.37,1.37,0,0,1,1.1,1.4,3.08,3.08,0,0,1-.1.9L352,69.4a26.18,26.18,0,0,1-4.1,6,16.13,16.13,0,0,1-3.9,4.7l-0.7.7c-2.2,2.2-4.2,3-7.2,4.1C335.5,85.3,333.8,85.4,331.9,85.4ZM322,67.3a27.39,27.39,0,0,0,2.8-1.1c4.1-2.2,5.4-2.4,7.9-5a39.16,39.16,0,0,0,2.7-3.3,11.51,11.51,0,0,0,2.6-7.6c0-1.1-.8-2.4-1.9-2.4a3.89,3.89,0,0,0-1.8.3,1.32,1.32,0,0,1-.5.3s-3.3.7-6.8,5.4a3.34,3.34,0,0,0-1.2,1.5,32.85,32.85,0,0,0-2.2,3.7,10,10,0,0,0-.9,2.8c0,0.3-.4.8-0.5,1.5,0,0.3-.1.7-0.1,1.1a9.61,9.61,0,0,0-.5,2.3v0.8Zm28.7,3a1.34,1.34,0,0,1-1.4-1.5V68.3l2.3-4.5,1.2-2,1.2-2,1.1-1.6,0.8-1.2,0.8-1.2a19.1,19.1,0,0,1-2.4-9.2,11.31,11.31,0,0,1,.7-3.9l0.4-1.1,0.7-.8a4.43,4.43,0,0,1,1.5-1.2,7.31,7.31,0,0,1,3.3-.8,2.66,2.66,0,0,1,1.2.3l0.9,0.3a4.29,4.29,0,0,1,1.9,1.4,3.77,3.77,0,0,1,.9,1.5,5.38,5.38,0,0,1,.4,2.2c0,0.4-.1.8-0.1,1.2l-0.3,1.5a7,7,0,0,1-.8,2,6.12,6.12,0,0,1-.5,1.2l-1.4,2.2-0.7,1.1a9.51,9.51,0,0,1-1.5,2l0.8,1.4,0.8,1.4a2.62,2.62,0,0,0,.5.9l0.9,1.5c0.4,0.5.5,1.1,0.9,1.6l0.5,0.8,0.8,1.5,0.8,1.2,0.8,1.9,0.4,0.9a14.64,14.64,0,0,1,1.2,5v1.4a8.75,8.75,0,0,1-.3,2.4,6.31,6.31,0,0,1-.8,2.3l-0.8,1.4a12.78,12.78,0,0,0,3.5-1.9,19.17,19.17,0,0,0,2.2-1.8,26.17,26.17,0,0,0,4.1-4.7l0.9-1.4a36.09,36.09,0,0,0,2.4-4.1,1,1,0,0,0,.1-0.3c0.7-1.1.8-1.5,1.5-1.5a2.2,2.2,0,0,1,.8.1,1.42,1.42,0,0,1,1.1,1.2,2.1,2.1,0,0,1-.3,1.2l-1.2,2.3-1.2,2-2.2,3.1a20.13,20.13,0,0,1-3.8,4.3c-0.7.7-1.5,1.2-2.2,1.8a10.68,10.68,0,0,1-2.7,1.6,22.27,22.27,0,0,1-3.1,1.2l-3,.8-2.3.4c-1.1.1-2.4,0.3-3.7,0.3h-0.5a12.27,12.27,0,0,1-3.9-.7l-1.6-.8a3.51,3.51,0,0,1-.8-0.5,5.5,5.5,0,0,1-1.5-1.6,0.9,0.9,0,0,1-.1-0.5,1.08,1.08,0,0,1,.3-0.9l0.5-.4a1.61,1.61,0,0,1,1.1-.5h0.1a13.57,13.57,0,0,0,1.2,1.2,7.46,7.46,0,0,0,1.2.7,10.24,10.24,0,0,0,3.5.5,8.52,8.52,0,0,0,2.3-.3,5.27,5.27,0,0,0,2.4-1.4,18.9,18.9,0,0,0,1.4-1.9,2.92,2.92,0,0,0,.5-1.4,16,16,0,0,0,.3-2.3,12.75,12.75,0,0,0-.1-2,13.82,13.82,0,0,0-.8-2.7,25,25,0,0,0-.7-2.6,19.91,19.91,0,0,0-1.2-1.9l-0.5-1.1-0.7-1.2L359.8,62l-0.7-1.1L359,60l-0.5-.9-0.4.5-1.4,2-1.2,2c-0.3.5-.5,1.2-0.9,1.8l-1.2,2.2c-0.5.9-1.1,1.5-1.6,2.4A1.68,1.68,0,0,1,350.7,70.3Zm8-20.6a9.35,9.35,0,0,0,.7,2.2,15.26,15.26,0,0,0,1.1-1.6,1.52,1.52,0,0,0,.4-0.8l0.7-1.4a8,8,0,0,0,.8-3.3,2,2,0,0,0-.9-2,1.29,1.29,0,0,0-.7-0.1,1.58,1.58,0,0,0-1.2.5c-0.7.5-1.1,1.8-1.1,3.3A8.79,8.79,0,0,0,358.7,49.7Zm36.7,35.7c-0.9,0-1.9,0-3-.1a15.36,15.36,0,0,1-8-3.7c-3.3-3.9-4.1-8.9-4.1-12.6a21.79,21.79,0,0,1,.1-2.7,10.27,10.27,0,0,0,.5-2.4,5.62,5.62,0,0,1,.4-1.5,5.62,5.62,0,0,1,.4-1.5,2.47,2.47,0,0,1,.4-0.9,31.64,31.64,0,0,1,9.3-13.3,8.41,8.41,0,0,1,2.6-1.5,5.39,5.39,0,0,1,2.7-.7c0.3,0,.7-0.1,2.3-0.1a6.78,6.78,0,0,1,5.3,2,7,7,0,0,1,1.5,4.3,12.1,12.1,0,0,1-.7,3.7c-1.5,3.7-3.4,6.6-7.7,10.3a20.55,20.55,0,0,1-5.6,3.8l-0.8.4c-1.1.5-2,.4-3.4,1.1a3.38,3.38,0,0,0-1.1.7,12.13,12.13,0,0,0-1.4.5l-0.3.1a2.12,2.12,0,0,0-.3.7c0,4.1,2,6.9,3.8,8a3.36,3.36,0,0,0,1.4.8,11.45,11.45,0,0,0,3.5.7,14.08,14.08,0,0,0,2,.1,13.44,13.44,0,0,0,4.6-.8,19.53,19.53,0,0,0,7.2-5c0.9-.9,2-2.7,3-3.9a18.49,18.49,0,0,0,3.1-5.3c0.4-.8.7-1.2,1.4-1.2a2.49,2.49,0,0,1,.8.1,1.37,1.37,0,0,1,1.1,1.4,3.08,3.08,0,0,1-.1.9l-0.8,1.6a26.18,26.18,0,0,1-4.1,6,16.13,16.13,0,0,1-3.9,4.7l-0.7.7c-2.2,2.2-4.2,3-7.2,4.1C399.1,85.3,397.3,85.4,395.4,85.4Zm-9.9-18.1a27.39,27.39,0,0,0,2.8-1.1c4.1-2.2,5.4-2.4,7.9-5a39.16,39.16,0,0,0,2.7-3.3,11.51,11.51,0,0,0,2.6-7.6c0-1.1-.8-2.4-1.9-2.4a3.89,3.89,0,0,0-1.8.3,1.32,1.32,0,0,1-.5.3s-3.3.7-6.8,5.4a3.34,3.34,0,0,0-1.2,1.5,32.85,32.85,0,0,0-2.2,3.7,10,10,0,0,0-.9,2.8c0,0.3-.4.8-0.5,1.5,0,0.3-.1.7-0.1,1.1a9.61,9.61,0,0,0-.5,2.3v0.8Zm68.3-20.8c3.4,2,3.9,4.9,4.2,9.1a38.08,38.08,0,0,1-.7,5.6c-0.4,2.3-.8,3.7-1.2,5.6l-0.4,1.8-1.2,4.9-0.3,1.6c-0.3,2.4,0,5.3,3.4,5.3h0.8a8.93,8.93,0,0,0,3.7-1.2c0.9-.5,1.5-1.2,3.5-3.3,0.9-1.2,2.3-2.8,3.1-4.1a38.09,38.09,0,0,0,2.8-4.7c0.8-1.5,1.4-1.9,2.4-1.5a1.42,1.42,0,0,1,1.1,1.2,3.44,3.44,0,0,1-.1.9,11.6,11.6,0,0,1-.8,1.6,23.73,23.73,0,0,1-3.4,5.1c-1.8,2.4-2.6,3.8-3.4,4.6l-1.4,1.4a10.19,10.19,0,0,1-4.5,3.1,14.07,14.07,0,0,1-4.3,1.1,4,4,0,0,1-1.8-.3c-1.4-.4-3.3-1.2-3.8-2.3a9.51,9.51,0,0,1-1.4-4.6c0-2.6.7-4.6,1.2-7.2l0.4-1.9a41.37,41.37,0,0,0,.9-4.6l0.4-2.6a18.89,18.89,0,0,0,.3-4.7,13.47,13.47,0,0,0-.4-3.3,6.19,6.19,0,0,0-1.1-2c-0.5-.7-1.8-0.9-2.8-0.9-1.8,0-3.9.7-6.6,3.5a5.34,5.34,0,0,0-1.5,1.5,9.38,9.38,0,0,0-.9,1.2l-1.6,2.4c-1.9,2.4-3.7,6.2-5,12.7a13.28,13.28,0,0,0-.5,3c-0.1.7-.3,1.2-0.4,1.8s-0.1.7-.1,1.1a40.32,40.32,0,0,0-.5,5c-0.3,2.3-.8,2.6-2.2,2.6h-0.5a2.27,2.27,0,0,1-1.6-.5,2.7,2.7,0,0,1-.3-1.5,21.59,21.59,0,0,1,.3-3.5l0.8-4.1,1.8-8c0.1-.8.3-1.1,0.4-1.9s0.1-1.4.1-2.2c0.1-.5.3-1.2,0.4-1.9a14.36,14.36,0,0,0,.5-3.1c0-1.2.3-4.6,0.3-5.8a1.9,1.9,0,0,0-2-2.2c-1.6,0-2.4.7-3.7,1.6a14.4,14.4,0,0,0-3,3.5c-0.9,1.2-2.6,4.6-3.3,5.8a41.6,41.6,0,0,0-2.8,5.7c-0.8,1.5-1.4,1.9-2.4,1.5a1.42,1.42,0,0,1-1.1-1.2,3.44,3.44,0,0,1,.1-0.9,14.36,14.36,0,0,1,.7-1.6c1.5-2.6,2-3.9,3.3-6.1s3.1-6.1,5.6-8.7a11.76,11.76,0,0,1,3-2.7,9.14,9.14,0,0,1,1.4-.7,9,9,0,0,1,2.6-.3,5.26,5.26,0,0,1,4.2,1.9,5.51,5.51,0,0,1,1.6,4.3c0,0.7-.3,2.4-0.3,2.8v0.1a28.76,28.76,0,0,1,2.2-2.7l0.7-.7a17.38,17.38,0,0,1,7.6-5.6,12.63,12.63,0,0,1,4.3-.8A11.64,11.64,0,0,1,453.8,46.5Zm23.7,3.7c-0.7,0-1.1-.1-1.6-0.1-1.1,0-1.8.1-2.8,0.1a6.61,6.61,0,0,1-1.5-.5,1.29,1.29,0,0,1-.4-1.2,1.86,1.86,0,0,1,1.2-1.6,1.65,1.65,0,0,1,1.2,0c0.3,0,.7-0.1,1.1-0.1H477a10.18,10.18,0,0,0,3,.1c0.5-2.8,1.2-5.7,1.9-8.7l0.1-.3c0.4-1.6.8-3.3,1.2-4.9,0.1-.7.4-1.2,0.5-1.9,0.3-.8.5-1.8,0.8-2.6a28.23,28.23,0,0,1,2.2-4.2,8.13,8.13,0,0,1,1.8-1.9,4.26,4.26,0,0,1,2.8-.9,3,3,0,0,1,2.4.9,1.58,1.58,0,0,1,.7.7,4.17,4.17,0,0,1,.7,2.3,26.92,26.92,0,0,1-.8,6.1,13.32,13.32,0,0,1-.5,1.9,55.29,55.29,0,0,1-2.7,6.4,29.61,29.61,0,0,1-2.6,4.9l-0.8,1.4h0.7c0.9,0,2.6,0,4.1.1a23.22,23.22,0,0,1,3.7.3,5.76,5.76,0,0,1,1.5.1,1,1,0,0,1,.9.5c0.5,1.1.1,1.5,0,2.3a1.61,1.61,0,0,1-1.5.8h-0.3a59,59,0,0,0-8.7-.7,24.39,24.39,0,0,1-2.8-.1c-0.4,0-.5.8-0.9,1.5l-0.4.7a7,7,0,0,0-.8,2c0,0.3-.3,1.4-0.5,2.6-0.1.7-.3,1.4-0.4,2.2s-0.3,1.5-.4,2.3c-0.3,1.6-.5,3.4-0.8,5a33.64,33.64,0,0,0-.7,5.8,15.53,15.53,0,0,0,.3,3.4,5.28,5.28,0,0,0,.3,1.2,8.56,8.56,0,0,0,1.1,2.4c0.8,1.2,2.4,1.4,3.7,1.4a8.57,8.57,0,0,0,4.5-1.2,10.25,10.25,0,0,0,3-2.3c0.9-1.2,2.2-2.6,3-3.8,1.5-2.2,2.4-3.7,3.4-5.4s1.2-2,2.4-1.6a1.42,1.42,0,0,1,1.1,1.2,2.1,2.1,0,0,1-.3,1.2l-1.2,2.3a34.53,34.53,0,0,1-3.4,5.1c-1.8,2.3-2.6,3.7-3.4,4.5a9.35,9.35,0,0,1-2,1.8c-2,1.6-3.1,1.6-4.6,2.3a9.74,9.74,0,0,1-3.5.4c-2.8-.5-5.1-1.2-6.6-4.1a11.9,11.9,0,0,1-1.5-4.1,20.92,20.92,0,0,1,0-5.7c-0.3-1.4.7-6.1,1.1-6.9,0.1-.3-0.1-0.5-0.3-0.3a4.13,4.13,0,0,0-.5,1.1,41.12,41.12,0,0,1-2.2,4.3c-0.7,1.1-.9,1.4-2.3.9a1.47,1.47,0,0,1-1.1-1.4,1.33,1.33,0,0,1,.3-0.8c0.3-.4.7-1.4,1.1-1.9l0.8-1.5,1.1-2.2,1.5-3a17.3,17.3,0,0,1,1.4-3.4c0.3-.7.7-1.5,1.1-2.4a17.08,17.08,0,0,0,.9-2.7c0-.1.1-0.3,0.1-0.4A13.44,13.44,0,0,1,477.5,50.2Zm7.5-9.1-0.3,1.2-1.1,4.3c0.7-.9,1.4-2.2,2.2-3.5,0.5-.9.9-1.8,1.5-2.7,0.8-1.8,1.8-3.9,2.6-6.1,0.1-.5.4-0.9,0.5-1.5a16.42,16.42,0,0,0,.9-3.5c0.3-1.1.4-2.8-.1-3.4a0.61,0.61,0,0,0-.7-0.3,2.26,2.26,0,0,0-1.1.8v0.1a16.86,16.86,0,0,0-1.2,2.8l-0.3.7-1.2,4.7-0.4,1.6-0.3.9Zm28.8,44.3c-0.9,0-1.9,0-3-.1a15.36,15.36,0,0,1-8-3.7c-3.3-3.9-4.1-8.9-4.1-12.6a21.79,21.79,0,0,1,.1-2.7,10.27,10.27,0,0,0,.5-2.4,5.62,5.62,0,0,1,.4-1.5,5.62,5.62,0,0,1,.4-1.5,2.47,2.47,0,0,1,.4-0.9,31.64,31.64,0,0,1,9.3-13.3,8.41,8.41,0,0,1,2.6-1.5,5.39,5.39,0,0,1,2.7-.7c0.3,0,.7-0.1,2.3-0.1a6.78,6.78,0,0,1,5.3,2,7,7,0,0,1,1.5,4.3,12.1,12.1,0,0,1-.7,3.7c-1.5,3.7-3.4,6.6-7.7,10.3a20.55,20.55,0,0,1-5.6,3.8l-0.8.4c-1.1.5-2,.4-3.4,1.1a3.38,3.38,0,0,0-1.1.7,12.13,12.13,0,0,0-1.4.5l-0.3.1a2.12,2.12,0,0,0-.3.7c0,4.1,2,6.9,3.8,8a3.36,3.36,0,0,0,1.4.8,11.45,11.45,0,0,0,3.5.7,14.08,14.08,0,0,0,2,.1,13.44,13.44,0,0,0,4.6-.8,19.53,19.53,0,0,0,7.2-5c0.9-.9,2-2.7,3-3.9a18.49,18.49,0,0,0,3.1-5.3c0.4-.8.7-1.2,1.4-1.2a2.49,2.49,0,0,1,.8.1,1.37,1.37,0,0,1,1.1,1.4,3.09,3.09,0,0,1-.1.9l-0.8,1.6a26.18,26.18,0,0,1-4.1,6,16.13,16.13,0,0,1-3.9,4.7l-0.7.7c-2.2,2.2-4.2,3-7.2,4.1C517.5,85.3,515.7,85.4,513.8,85.4Zm-9.9-18.1a27.39,27.39,0,0,0,2.8-1.1c4.1-2.2,5.4-2.4,7.9-5a39.16,39.16,0,0,0,2.7-3.3,11.51,11.51,0,0,0,2.6-7.6c0-1.1-.8-2.4-1.9-2.4a3.89,3.89,0,0,0-1.8.3,1.32,1.32,0,0,1-.5.3s-3.3.7-6.8,5.4a3.34,3.34,0,0,0-1.2,1.5,32.85,32.85,0,0,0-2.2,3.7,10,10,0,0,0-.9,2.8c0,0.3-.4.8-0.5,1.5,0,0.3-.1.7-0.1,1.1a9.61,9.61,0,0,0-.5,2.3v0.8Zm67.4,12a15.21,15.21,0,0,0,3.4-3c0.9-1.2,2.2-2.6,3-3.8,1.5-2.2,2.4-3.7,3.4-5.4,0.7-1.2,1.1-1.8,1.8-1.8a1.7,1.7,0,0,1,.7.1,1.42,1.42,0,0,1,1.1,1.2,2.1,2.1,0,0,1-.3,1.2l-1.2,2.3a34.53,34.53,0,0,1-3.4,5.1c-1.8,2.3-2.6,3.7-3.4,4.5L575,81.1a14.38,14.38,0,0,1-4.6,3.4,8,8,0,0,1-2.4.4c-0.4,0-.9-0.1-1.2-0.1-2.8-.5-3.7-1.1-5.4-3.9a29.91,29.91,0,0,1-1.5-4.2l-0.3-2.3a2.25,2.25,0,0,0-.1-0.7,0.79,0.79,0,0,0-.5.7C556.1,80,552.2,85,545.1,85a13.89,13.89,0,0,1-6.8-1.5c-3.4-1.8-6.1-5.1-6.6-8.3a22.82,22.82,0,0,1-.4-4.5,10.89,10.89,0,0,1,.3-3,19.77,19.77,0,0,1,1.8-7.7,32.43,32.43,0,0,1,5.7-8.5,19.34,19.34,0,0,1,4.5-3.7,1,1,0,0,0,.4-0.3,25.84,25.84,0,0,1,9.8-3.3h1.4a11.77,11.77,0,0,1,5.8,1.6c0.3-2.7.7-5.6,1.1-8.3l0.4-2,1.4-10.2a44.8,44.8,0,0,1,1.1-6.2,26.35,26.35,0,0,1,1.5-5.3c1.4-3.1,3.3-7,7-7a3.81,3.81,0,0,1,1.9.4c3.1,1.5,3.4,3.9,3.5,6.4a65.56,65.56,0,0,1-1.9,14l-0.1.3a71.34,71.34,0,0,1-4.2,12.6c-0.9,2.8-1.4,4.3-2,6.1-0.7,1.4-1.2,3-1.9,4.6a52.64,52.64,0,0,0-2.8,7.3l-0.5,1.4a19.78,19.78,0,0,0-2,7.5v0.4c0.1,3.9-.5,12.7,4.7,12.7C568.7,80.6,569.6,80.4,571.3,79.3ZM559.8,60.1V59a40.41,40.41,0,0,1,.4-5.8c-0.8-.1-1.2-0.5-1.5-2.2-0.5-2-2.2-2.6-4.2-2.6-2.3,0-6.8.7-9.8,3.7-1.2,1.2-2.6,1.8-3.8,3.4a7.47,7.47,0,0,0-1.1,1.6l-0.7.8c-1.4,2.2-2,4.7-3,7.2a23,23,0,0,0-.7,6.5,9.71,9.71,0,0,0,.8,4.2,9.93,9.93,0,0,0,1.4,2.7,8.22,8.22,0,0,0,6.8,2.7,12.35,12.35,0,0,0,3.1-.3c3.9-1.2,7.2-4.7,10.3-14.1C558.9,63.3,559.8,60.2,559.8,60.1Zm4.7-11.7a4.1,4.1,0,0,0,.1,1.1,20.37,20.37,0,0,1,.9-2.2c2-5.4,3.8-10.2,5.3-14.8,0.9-3,1.8-6.1,2.6-8.9a33,33,0,0,0,1.1-8.5c0-1.9-.3-3.1-1.1-3.3H573c-0.8,0-1.4.5-1.8,1.8a32.41,32.41,0,0,0-1.6,4.7c-0.8,3-1.5,6.1-2.2,9.8-0.4,2.6-.8,5.3-1.1,7.9-0.3,1.8-.4,3.5-0.8,5.3A22,22,0,0,1,565,45,27.52,27.52,0,0,0,564.5,48.4ZM642,71.3a4.31,4.31,0,0,1-1.5-1.5,15.57,15.57,0,0,1-1.1,4.5,20.29,20.29,0,0,1-2.4,4.9c-1.8,2.7-6.2,5.8-10.6,5.8h-0.7a10,10,0,0,1-8-3.9,18,18,0,0,1-3.4-9.1,70.86,70.86,0,0,1-.4-7.9c0-1.5.1-3,.1-4.5V59.1c0-.4.4-2,0.3-1.9,0-.4.1-2.2,0.1-3.1s0.4-1.5.4-1.9l0.5-3.7c0-.8.1-1.5,0.1-2.3l0.4-2.8a5.67,5.67,0,0,0,.3-1.5,10.89,10.89,0,0,1-3-.3l-0.8-.3c-1.6-.4-1.9-0.8-3.4-1.8-0.9-.5-2.2-2.4-2.8-3.1a19.23,19.23,0,0,1-1.4-3.3L604,31.2a12,12,0,0,1-.7-4.3c0-.5.1-3.1,1.1-3.8a1,1,0,0,1,.8-0.4,5.64,5.64,0,0,0,.7.1,2.39,2.39,0,0,1,.7.3,1.19,1.19,0,0,1,.4,1.1V25l-0.3,1.6a20.93,20.93,0,0,0,.1,2.6v0.4a4.9,4.9,0,0,0,.8,2.4,10.64,10.64,0,0,0,2.6,3.5,7.62,7.62,0,0,0,6,2.3l0.5,0.1,0.4-.9a36.76,36.76,0,0,1,1.5-5.7l0.4-1.4a73.83,73.83,0,0,1,3.5-10.3,58.13,58.13,0,0,1,4.7-10.3,11.85,11.85,0,0,1,4.2-4.6,5.78,5.78,0,0,1,3.4-1.4,5.24,5.24,0,0,1,2.6.8A5,5,0,0,1,640,6.7a11,11,0,0,1,.5,3.5,14.39,14.39,0,0,1-.5,4.1,44.66,44.66,0,0,1-1.6,5.7,16.85,16.85,0,0,1-1.2,2.8,20.08,20.08,0,0,1-1.9,3.5l-2,3.5-2,2.7a22,22,0,0,1-2,2.3,23.79,23.79,0,0,1-4.5,3.9l-2.3,1.4-1.5.7a1.7,1.7,0,0,1-.7.1l-0.1,1.5c0,0.1-.7,3.1-0.8,3.4a22.68,22.68,0,0,0-.5,3.5v1.6a24.66,24.66,0,0,1-.3,3.5,104.66,104.66,0,0,0-.5,10.8V66c0,2.3.1,8.5,2.3,11.8a5.46,5.46,0,0,0,1.9,1.8,4.5,4.5,0,0,0,1.4.7,6.66,6.66,0,0,0,1.6.1c3.9-.1,7.6-2,9.2-5.3a29.46,29.46,0,0,0,2.7-12.9V60.8a38.32,38.32,0,0,0-.5-5.1,10.24,10.24,0,0,0-1.4-3.5L635,52a4.71,4.71,0,0,1-.3-0.9,1,1,0,0,1,.5-0.8,2.13,2.13,0,0,1,1.5-.7H637a4.1,4.1,0,0,1,1.1.1l0.4,0.3a4.23,4.23,0,0,1,1.6,2.2,9.42,9.42,0,0,1,.9,4.3v1.6c0.1,2,.4,4.3.5,5.1l0.4,2.2a6.5,6.5,0,0,0,1.1,2.2,4.66,4.66,0,0,0,1.9,1.6,6,6,0,0,0,3,.7,5.42,5.42,0,0,0,4.6-2.2l0.9-1.6a1.17,1.17,0,0,1,1.1-.7,2.25,2.25,0,0,1,.7.1,1.5,1.5,0,0,1,1.1,1.5,7.94,7.94,0,0,1-2,3.7,7,7,0,0,1-2.6,1.9,7.22,7.22,0,0,1-2.3.5,15.52,15.52,0,0,1-2.3.1,10.8,10.8,0,0,1-2.8-.5l-0.5-.3ZM621.4,36.9A12.9,12.9,0,0,0,623,36l2-1.5a8.6,8.6,0,0,0,2-1.8l1.8-2a17.32,17.32,0,0,0,2.2-3.1l1.8-2.8a49.6,49.6,0,0,0,2.2-4.7c0.3-.7.5-1.4,0.7-2l0.5-1.8a12.75,12.75,0,0,0,.7-4.2V10.9a5.92,5.92,0,0,0-.5-2.7,1.4,1.4,0,0,0-.9-0.7,1,1,0,0,1-.4.1,6.58,6.58,0,0,0-3.5,3.3,43,43,0,0,0-5.3,11l-0.5,1.4-0.4,1.8-2.2,6.8c-0.5,1.4-.9,2.6-1.2,3.7A1.78,1.78,0,0,0,621.4,36.9Zm39,36.7a8,8,0,0,0,1.9,4.3,7.22,7.22,0,0,0,7.6,1.9c2.7-.5,5.1-2.2,7.2-5.8l0.4-.5,0.1-.4c2.4-4.7,4.5-17.6,4.5-17.8l0.8-4.3a23.35,23.35,0,0,1,.4-2.6,2,2,0,0,1,1.9-1.6,1.92,1.92,0,0,1,1.2.4c1.4,0.7,1.6.8,1.6,1.8a24.72,24.72,0,0,1-1.1,6,12.61,12.61,0,0,0-.5,2.8,14.69,14.69,0,0,0-.5,1.9c-0.3,1.2-.5,2.3-0.7,3.5a152.88,152.88,0,0,0-2.3,15.4v0.3l-0.8,5.7a49.05,49.05,0,0,0,5.3-4.2l3-2.8c0.8-.5,1.6-2,2.4-2.7l2.2-2.6a32,32,0,0,0,3.4-5.1c0.9-1.6,1.2-2,2.4-1.6a1.42,1.42,0,0,1,1.1,1.2,2.1,2.1,0,0,1-.3,1.2l-1.2,2.3a40.51,40.51,0,0,1-3.4,4.9c-1.8,2.3-2.2,2.8-3,3.7l-1.6,1.6L690.8,82a56.8,56.8,0,0,1-5.4,4.7l-2.2,1.5a4.56,4.56,0,0,0-1.2,1.2,8,8,0,0,0-.5,2.4l-0.1.8L681,95.4a33.81,33.81,0,0,0-.9,5.4l-0.4,3a19.81,19.81,0,0,1-.8,3.5,5.28,5.28,0,0,0-.3,1.2L678,110l-0.4,1.8a8.16,8.16,0,0,1-.4,1.1c-1.5,4.6-5.4,12.1-11.9,12.1a18.55,18.55,0,0,1-2.2-.1,14.27,14.27,0,0,1-2.2-.8,6.28,6.28,0,0,1-1.5-1.1c-1.6-1.2-3.5-3.9-3.4-8.7,0.8-8.4,3.4-11,6.2-14.2a36,36,0,0,1,5.4-5l2-1.5c1.4-.9,2.3-1.9,5.1-3.8l1.2-.8c1.5-1.1,1.6-1.6,1.8-3.3,0-1.6.7-4.7,0.9-6.6V79l-1.5,1.5a11.69,11.69,0,0,1-2.8,2.6,11.5,11.5,0,0,1-8.5,1.8c-3.5-.5-5.4-1.6-7.3-4.6a18.52,18.52,0,0,1-2-5.7,47.82,47.82,0,0,1-.7-6.5c-0.8,2.2-1.4,2.3-2.6,1.9a1.47,1.47,0,0,1-1.1-1.4,1.33,1.33,0,0,1,.3-0.8c0.3-.4.7-1.4,1.1-1.9,0.5-1.1,1.4-1.9,1.8-2.7l0.3-3.8a19.5,19.5,0,0,1,.4-3.9,52.11,52.11,0,0,1,.9-5.7,23.42,23.42,0,0,1,1.2-3,5.84,5.84,0,0,1,3-3,5.91,5.91,0,0,1,2.2-.5,3.25,3.25,0,0,1,2.7,1.1,5.1,5.1,0,0,1,1.1,3.7c0,2.3-1.1,4.6-2.8,7.6a20.62,20.62,0,0,1-2.3,3.7c-0.8,1.1-1.6,2.3-2.3,3.5v3s0.1,1.9.1,3.5C659.9,69,660.1,72,660.4,73.6Zm16.3,19.3c-0.1.1-5.7,3.3-8.3,6.2-2.8,2.6-3.9,3.5-4.9,5l-0.8,1.4c-0.3.4-3,4.7-2.8,8.7,0,0.1,0,4.1,1.8,5.8a4.14,4.14,0,0,0,3.1,1.2c3.9,0,6-2.8,7.3-6.6a3.08,3.08,0,0,0,.5-1.2c1.8-4.2,2-6.8,2.8-10,0.4-1.5.4-3.4,0.7-4.9l0.4-2.4a23.36,23.36,0,0,0,.4-2.6V93C676.8,92.8,676.8,92.8,676.7,92.9ZM659.9,56.8c0.9-1.2,1.6-2.4,2.3-3.5a12.07,12.07,0,0,0,.8-1.9,6.92,6.92,0,0,0,.5-2.8c0-.7-0.1-1.1-0.5-1.1a2.41,2.41,0,0,0-1.5,1.6,24.18,24.18,0,0,0-1.4,5.6Z" transform="translate(0 -3.3)"/></svg>