<?xml version="1.0" encoding="utf-8"?>
<!-- Generator: Adobe Illustrator 19.0.1, SVG Export Plug-In . SVG Version: 6.00 Build 0)  -->
<svg version="1.1" id="Corporation" xmlns="http://www.w3.org/2000/svg" xmlns:xlink="http://www.w3.org/1999/xlink" x="0px"
	 y="0px" viewBox="0 0 81.4 22" style="enable-background:new 0 0 81.4 22;" xml:space="preserve">
<style type="text/css">
	.st0{fill:#FFFFFF;}
</style>
<g>
	<g>
		<g>
			<g>
				<path class="st0" d="M80.9,19.2c0-1.2-0.9-2.1-2.1-2.1c-1.2,0-2.1,0.9-2.1,2.1s0.9,2.1,2.1,2.1C80,21.3,80.9,20.4,80.9,19.2
					L80.9,19.2L80.9,19.2z M78.3,19.3v1.4h-0.4v-3.1H79c0.7,0,1,0.3,1,0.8c0,0.3-0.2,0.6-0.5,0.7v0c0.3,0,0.4,0.3,0.4,0.7
					c0,0.3,0.1,0.7,0.2,0.9h-0.5c-0.1-0.3-0.1-0.7-0.2-1c-0.1-0.3-0.2-0.4-0.5-0.4H78.3L78.3,19.3z M78.8,18.9
					c0.4,0,0.6-0.2,0.6-0.4c0-0.2-0.1-0.4-0.6-0.4h-0.6v0.9H78.8L78.8,18.9z M76.3,19.2c0-1.5,1.2-2.5,2.6-2.5c1.4,0,2.6,1,2.6,2.5
					c0,1.5-1.2,2.5-2.6,2.5C77.5,21.7,76.3,20.7,76.3,19.2L76.3,19.2z"/>
			</g>
			<g>
				<path class="st0" d="M67.5,14.3l6.1-6.9h-7.2L64,10.2l-2.6-2.9H47.7V5.5h6.5V0L36.8,0v8.7h-0.1C35.6,7.4,34.2,7,32.6,7
					c-3.3,0-5.7,2.2-6.6,5.2c-1-3.2-3.5-5.2-7.3-5.2c-3.1,0-5.5,1.4-6.7,3.6V7.8H5.6v-3h6.9V0H0v21.3h5.6v-8.9h5.6
					C11.1,13,11,13.7,11,14.4c0,4.4,3.4,7.5,7.7,7.5c3.6,0,6-1.7,7.3-4.8h-4.8c-0.7,0.9-1.2,1.2-2.5,1.2c-1.5,0-2.8-1.3-2.8-2.9h9.9
					c0.4,3.5,3.2,6.6,6.9,6.6c1.6,0,3.1-0.8,4-2.1h0.1v1.4h24.5l2.5-2.9l2.6,2.9h7.4L67.5,14.3z M16.1,12.4c0.3-1.3,1.4-2.2,2.7-2.2
					c1.4,0,2.4,0.9,2.7,2.2C21.5,12.4,16.1,12.4,16.1,12.4z M33.7,18c-1.8,0-3-1.7-3-3.5c0-1.9,1-3.7,3-3.7c2.1,0,2.9,1.8,2.9,3.7
					C36.6,16.3,35.7,18,33.7,18z M53.1,20.2H42.2V1h11v3.5h-6.5v3.9h6.4v3.2h-6.5v5.2h6.5V20.2z M47.8,15.6v-2.8h6.5V7.8l5.8,6.6
					l-5.8,6.6v-5.3H47.8z M63.8,16.8l-3,3.4h-4.4l5.3-5.9l-5.3-5.9h4.6l3.1,3.4L67,8.4h4.4l-5.2,5.9l5.3,5.9h-4.7L63.8,16.8z"/>
			</g>
		</g>
	</g>
</g>
</svg>
