<?xml version="1.0" encoding="utf-8"?>
<!-- Generator: Adobe Illustrator 19.0.1, SVG Export Plug-In . SVG Version: 6.00 Build 0)  -->
<svg version="1.1" id="Layer_1" xmlns="http://www.w3.org/2000/svg" xmlns:xlink="http://www.w3.org/1999/xlink" x="0px" y="0px"
	 viewBox="0 0 86.2 46.6" style="enable-background:new 0 0 86.2 46.6;" xml:space="preserve">
<style type="text/css">
	.st0{fill:#472F92;}
	.st1{fill:#009FDE;}
	.st2{fill:#39B54A;}
	.st3{fill:#F47920;}
</style>
<g>
	<g>
		<g>
			<g>
				<g>
					<path class="st0" d="M44.5,46.6c-2.3,0-3.1-1.8-3.1-3.9c0-2.2,0.8-3.9,3.1-3.9c2.3,0,3.1,1.8,3.1,3.9
						C47.7,44.9,46.8,46.6,44.5,46.6z M44.5,46.1c1.9,0,2.4-1.7,2.4-3.4c0-1.7-0.6-3.4-2.4-3.4c-1.9,0-2.5,1.7-2.5,3.4
						C42.1,44.4,42.7,46.1,44.5,46.1z"/>
					<path class="st0" d="M54.6,46.5v-4.8h-2v4.8h-0.6v-4.8h-2.4v4.8h-0.6v-4.8H48v-0.5h0.9v-1c0-0.9,0.5-1.4,1.4-1.4
						c0.2,0,0.4,0,0.6,0v0.5c-0.1,0-0.2,0-0.4,0c-0.7,0-1,0.3-1,1v1h2.4v-1c0-0.9,0.5-1.4,1.4-1.4c0.2,0,0.4,0,0.6,0v0.5
						c-0.1,0-0.2,0-0.4,0c-0.7,0-1,0.3-1,1v1h2.7v5.3H54.6z M54.6,39.7v-0.8h0.7v0.8H54.6z"/>
					<path class="st0" d="M56.9,43.9c0,1.6,0.8,2.3,1.8,2.3c0.9,0,1.3-0.6,1.5-1.2h0.6c-0.3,1.1-0.9,1.7-2.1,1.7
						c-1.3,0-2.5-0.8-2.5-2.8c0-2,1.2-2.8,2.5-2.8c1.2,0,1.8,0.6,2.1,1.7h-0.6c-0.2-0.6-0.6-1.2-1.5-1.2
						C57.7,41.5,56.9,42.2,56.9,43.9z"/>
					<path class="st0" d="M62.1,44c0,1.2,0.6,2.2,1.7,2.2c0.9,0,1.3-0.6,1.5-1.2h0.4c-0.3,1.1-0.8,1.7-2,1.7c-1.6,0-2.3-1.2-2.3-2.7
						c0-1.5,0.8-2.9,2.4-2.9c1.7,0,2,1.5,2,2.9H62.1z M62.1,43.5h3.2c0-1-0.5-1.9-1.5-1.9C62.8,41.5,62.2,42.2,62.1,43.5z"/>
				</g>
				<g>
					<g>
						<g>
							<polygon class="st1" points="65.7,35.9 62.7,32.6 59.8,35.9 53.7,35.9 59.7,29.1 53.7,22.4 60,22.4 63,25.6 65.9,22.4 
								72,22.4 66,29.1 72.1,35.9 							"/>
							<polygon class="st1" points="41.8,35.9 41.8,14.6 53.7,14.6 53.7,19.3 46.8,19.3 46.8,22.4 53.7,22.4 53.7,26.9 46.8,26.9 
								46.8,31.1 53.7,31.1 53.7,35.9 							"/>
						</g>
						<path class="st0" d="M36.8,14.6v8.7h-0.1c-1.1-1.3-2.5-1.7-4.1-1.7c-3.3,0-5.8,2.2-6.6,5.2c-1-3.2-3.5-5.2-7.3-5.2
							c-3.1,0-5.5,1.4-6.8,3.6v-2.8H5.7v-3h6.9v-4.7H0v21.3h5.7v-9h5.6c-0.2,0.7-0.3,1.4-0.3,2.1c0,4.4,3.4,7.6,7.7,7.6
							c3.6,0,6-1.7,7.3-4.8h-4.8c-0.7,0.9-1.2,1.2-2.5,1.2c-1.5,0-2.8-1.3-2.8-2.9h9.9c0.4,3.5,3.2,6.6,6.9,6.6c1.6,0,3.1-0.8,4-2.1
							h0.1v1.4h5V14.6H36.8z M16.1,27c0.3-1.4,1.4-2.2,2.7-2.2c1.4,0,2.4,0.9,2.7,2.2H16.1z M33.8,32.6c-1.8,0-3-1.7-3-3.5
							c0-1.9,1-3.7,3-3.7c2.1,0,2.9,1.8,2.9,3.7C36.7,30.9,35.8,32.6,33.8,32.6"/>
					</g>
				</g>
			</g>
			<g>
				<g>
					<g>
						<g>
							<g>
								<g>
									<g>
										<g>
											<path class="st1" d="M79.2,33.6c0-1.2-0.9-2.1-2.1-2.1c-1.2,0-2.1,0.9-2.1,2.1c0,1.2,0.9,2.1,2.1,2.1
												C78.4,35.7,79.2,34.8,79.2,33.6L79.2,33.6L79.2,33.6z M76.6,33.7v1.4h-0.5V32h1.1c0.6,0,1,0.3,1,0.8
												c0,0.3-0.2,0.6-0.5,0.7v0c0.3,0,0.4,0.3,0.4,0.7c0,0.3,0.1,0.7,0.2,0.8h-0.5c-0.1-0.3-0.1-0.7-0.2-1
												c-0.1-0.3-0.2-0.4-0.5-0.4H76.6L76.6,33.7z M77.2,33.3c0.4,0,0.6-0.2,0.6-0.4c0-0.2-0.1-0.4-0.6-0.4h-0.5v0.9H77.2
												L77.2,33.3z M74.6,33.6c0-1.5,1.2-2.5,2.6-2.5c1.4,0,2.6,1,2.6,2.5c0,1.5-1.2,2.5-2.6,2.5C75.8,36.1,74.6,35.1,74.6,33.6
												L74.6,33.6z"/>
										</g>
									</g>
								</g>
							</g>
						</g>
					</g>
				</g>
			</g>
		</g>
		<g>
			<g>
				<g>
					<path class="st1" d="M84.6,3.9c-1.8,0.5-3.7,1.2-5.6,2c-0.2-2-0.5-4-1-5.8C77.5,0,77,0,76.5,0c-0.6,0-1.1,0-1.6,0.1
						c-0.5,1.9-0.8,3.8-1,5.8c0.9,0.4,1.7,0.8,2.6,1.3c0.5,0.2,0.9,0.5,1.4,0.8c0.5,0.3,0.9,0.5,1.4,0.8c0.8,0.5,1.6,1.1,2.4,1.6
						c1.7-1.2,3.2-2.5,4.6-3.8C85.8,5.6,85.3,4.7,84.6,3.9z"/>
					<path class="st2" d="M81.6,10.4c-0.8,0.6-1.6,1.1-2.4,1.6c-0.4,0.3-0.9,0.6-1.4,0.8c-0.5,0.3-0.9,0.5-1.4,0.8
						c-0.9,0.5-1.7,0.9-2.6,1.3c0.2,2,0.5,3.9,1,5.7c0.5,0.1,1.1,0.1,1.7,0.1c0.5,0,1,0,1.6-0.1c0.4-1.8,0.8-3.8,1-5.7
						c1.8,0.8,3.7,1.5,5.5,2c0.7-0.8,1.2-1.7,1.6-2.7C84.8,12.9,83.3,11.6,81.6,10.4z"/>
					<path class="st3" d="M73.7,10.4c0-0.5,0-1.1,0-1.6c0-1,0.1-1.9,0.2-2.9c-1.8-0.8-3.7-1.5-5.5-2c-0.7,0.8-1.2,1.8-1.6,2.8
						c1.4,1.3,2.9,2.6,4.5,3.7c-1.6,1.2-3.1,2.4-4.5,3.7c0.4,1,0.9,1.9,1.6,2.8c1.8-0.5,3.6-1.2,5.4-2C73.8,14,73.7,13,73.7,12
						C73.7,11.5,73.7,11,73.7,10.4z"/>
					<path class="st0" d="M79.2,8.8c-0.4-0.3-0.9-0.6-1.4-0.8c-0.5-0.3-0.9-0.5-1.4-0.8c-0.9-0.5-1.7-0.9-2.6-1.3
						c-0.1,0.9-0.2,1.9-0.2,2.9c0,0.5,0,1.1,0,1.6c0,0.5,0,1.1,0,1.6c0,1,0.1,1.9,0.2,2.9c0.9-0.4,1.7-0.8,2.6-1.3
						c0.5-0.2,0.9-0.5,1.4-0.8c0.5-0.3,0.9-0.5,1.4-0.8c0.8-0.5,1.6-1.1,2.4-1.6C80.9,9.9,80.1,9.3,79.2,8.8z"/>
				</g>
			</g>
		</g>
	</g>
</g>
</svg>
