<?xml version="1.0" encoding="utf-8"?>
<!-- Generator: Adobe Illustrator 19.0.1, SVG Export Plug-In . SVG Version: 6.00 Build 0)  -->
<svg version="1.1" id="Layer_1" xmlns="http://www.w3.org/2000/svg" xmlns:xlink="http://www.w3.org/1999/xlink" x="0px" y="0px"
	 viewBox="0 0 970.6 445.6" style="enable-background:new 0 0 970.6 445.6;" xml:space="preserve">
<style type="text/css">
	.st0{fill:#FFFFFF;}
</style>
<g>
	<g>
		<path class="st0" d="M234.7,107.4L485.4,0L736,107.4h156.3v43.8h78.3v294.4H0V151.2h78.3v-43.8H234.7z M99,128v43.8H20.6V425H950
			V171.8h-78.3V128H731.8L485.6,22.4L239.4,128H99z"/>
	</g>
	<polygon class="st0" points="716.9,185.7 716.8,233.3 747.6,233.3 754.1,185.7 	"/>
	<path class="st0" d="M870.4,233.6c0-7.8,6.3-13.5,13.7-13.5c7.4,0,13.7,5.7,13.7,13.5c0,7.8-6.3,13.5-13.7,13.5
		C876.7,247.1,870.4,241.4,870.4,233.6L870.4,233.6z M884.1,244.8c6.1,0,10.9-4.8,10.9-11.3c0-6.4-4.8-11.2-10.9-11.2
		c-6.2,0-11,4.8-11,11.2C873.1,240.1,877.9,244.8,884.1,244.8L884.1,244.8z M881.3,241.4h-2.4v-15.6h5.9c3.7,0,5.5,1.4,5.5,4.4
		c0,2.8-1.7,4-4,4.3l4.4,6.8h-2.6l-4.1-6.7h-2.7V241.4L881.3,241.4z M884.1,232.6c2,0,3.8-0.2,3.8-2.6c0-1.9-1.8-2.3-3.4-2.3h-3.2
		v4.8H884.1L884.1,232.6z"/>
	<polygon class="st0" points="154.9,347.9 154.9,185.7 110.5,185.7 110.5,386.5 223.5,386.5 223.5,347.9 	"/>
	<polygon class="st0" points="601.5,386.5 707.1,386.5 707.1,347.8 646.1,347.8 646.1,322.6 707.1,322.6 707.1,285.4 646.1,285.4 
		646.1,260 707.1,260 707.1,221.2 601.5,221.2 601.5,221.4 	"/>
	<path class="st0" d="M369.4,365.4c0,11.7-9.4,21.1-21.1,21.1h-85.7c-11.7,0-21.1-9.5-21.1-21.1V242.3c0-11.7,9.4-21.1,21.1-21.1
		h85.7c11.7,0,21.1,9.5,21.1,21.1V365.4z M324.9,260h-39v87.6h39V260z"/>
	<g>
		<path class="st0" d="M531.7,221.2v126.7h-26.8V221.2h-39v126.7h-26.8V221.2h-44.5v144.2c0,11.7,9.5,21.1,21.1,21.1h52.5
			c8.9,0,17.1-6.1,17.1-15c0,8.9,8.3,15,17.1,15H555c11.7,0,21.1-9.5,21.1-21.1V221.2H531.7z"/>
	</g>
	<path class="st0" d="M862.8,324.1L862.8,324.1l-0.3-0.6c-0.2-0.3-0.3-0.7-0.5-1l-0.3-0.6c-7-14.1-22.8-25.9-48.1-36l-0.9-0.3
		c-5-2-20.3-8-22-17.6c-0.5-2.7,0.6-7,3.7-9.6c3.2-3.2,8.1-4.9,14.6-4.9c10.3,0,22.1,4.2,28.2,6.7c12.8,5.3,24.1,10.1,24.2,10.1
		l1.1,0.5v-36.1l-0.4-0.2c-0.2-0.2-24.5-15.4-49-19c-2.8-0.2-5.6-0.4-8.3-0.4c-22.5,0-39.6,8.2-50.7,24.3
		c-9.3,13.3-10.4,34.3-2.4,49.9c10.2,17.7,26.6,25.1,42.4,32.3c6.5,2.9,13.3,6,19.6,9.8l0.1,0c7.1,4.3,10.8,10.9,9.3,16.7
		c-1.6,6.1-8.5,10.1-17.2,10.1c-1.2,0-2.4-0.1-3.6-0.2l-0.4-0.1c-16.8-2.3-50.9-15-51.3-15.2l-1.1-0.4V382l0.5,0.2
		c0.3,0.1,33.3,11,62.6,11h0c16,0,28.1-3.2,35.9-9.6c0.2-0.1,18.1-14.5,18.9-39C867.6,337.9,866.1,330.9,862.8,324.1z"/>
</g>
<g>
</g>
<g>
</g>
<g>
</g>
<g>
</g>
<g>
</g>
<g>
</g>
</svg>
